<svg width="142" height="53" viewBox="0 0 142 53" fill="none" xmlns="http://www.w3.org/2000/svg">
<path d="M78.4723 52.2563C76.3812 52.2563 74.6549 51.5917 73.2933 50.2626C71.9318 48.9335 71.251 47.2428 71.251 45.1903C71.251 43.139 71.9318 41.4486 73.2933 40.1189C74.6549 38.7892 76.3812 38.125 78.4723 38.1261C79.7309 38.1109 80.9684 38.4496 82.0439 39.1036C83.1076 39.7558 83.8399 40.5721 84.2407 41.5524C84.3631 41.8263 84.4228 42.1242 84.4154 42.4241C84.4154 42.9011 84.2637 43.2818 83.9602 43.5662C83.6568 43.8506 83.2599 43.9925 82.7694 43.992C82.4802 44.0047 82.1938 43.9304 81.9473 43.7787C81.734 43.6376 81.5274 43.3915 81.3376 43.043C80.9631 42.3712 80.537 41.897 80.0594 41.6204C79.5819 41.3439 78.9753 41.2039 78.2396 41.2005C77.1681 41.2005 76.3034 41.5684 75.6456 42.304C74.9877 43.0397 74.6585 44.0012 74.658 45.1887C74.658 46.3761 74.9872 47.3377 75.6456 48.0733C76.3039 48.809 77.1686 49.1768 78.2396 49.1768C78.9753 49.1768 79.5819 49.0349 80.0594 48.751C80.537 48.4672 80.9631 47.9896 81.3376 47.3184C81.5307 46.9701 81.734 46.7249 81.9473 46.5827C82.194 46.4314 82.4803 46.3571 82.7694 46.3694C83.2599 46.3694 83.6602 46.5116 83.9703 46.796C84.2805 47.0804 84.4353 47.4611 84.4347 47.9381C84.4303 48.1957 84.3844 48.4509 84.2987 48.6939C83.9118 49.7778 83.186 50.6425 82.1211 51.288C81.0563 51.9335 79.84 52.2563 78.4723 52.2563Z" fill="#EF5B81" stroke="#EF5B81" stroke-width="0.28141" stroke-miterlimit="10"/>
<path d="M96.8354 38.4066C97.3511 38.4066 97.7606 38.5709 98.064 38.8996C98.3675 39.2282 98.5192 39.6761 98.5192 40.2432V50.3122C98.5192 50.8799 98.3675 51.3278 98.064 51.6559C97.7606 51.9839 97.3511 52.1488 96.8354 52.1505C96.3058 52.1505 95.8859 51.9862 95.5758 51.6575C95.2656 51.3289 95.1108 50.881 95.1114 50.3139V46.5945H89.3034V50.3122C89.3034 50.8799 89.152 51.3278 88.8491 51.6559C88.5462 51.9839 88.1359 52.1488 87.618 52.1505C87.0889 52.1505 86.669 51.9862 86.3583 51.6575C86.0476 51.3289 85.8928 50.881 85.8939 50.3139V40.2449C85.8939 39.6772 86.0487 39.2293 86.3583 38.9012C86.6679 38.5732 87.0878 38.4089 87.618 38.4083C88.1336 38.4083 88.5434 38.5726 88.8474 38.9012C89.1514 39.2299 89.3029 39.6778 89.3018 40.2449V43.6334H95.1097V40.2449C95.1097 39.6772 95.2645 39.2293 95.5741 38.9012C95.8837 38.5732 96.3041 38.4083 96.8354 38.4066Z" fill="#EF5B81" stroke="#EF5B81" stroke-width="0.28141" stroke-miterlimit="10"/>
<path d="M107.116 52.2563C104.96 52.2563 103.222 51.6012 101.9 50.2912C100.578 48.9811 99.9164 47.2615 99.9153 45.1324C99.9153 43.1068 100.596 41.4323 101.958 40.1088C103.319 38.7853 105.039 38.1244 107.116 38.1261C109.181 38.1261 110.898 38.794 112.266 40.1298C113.634 41.4656 114.318 43.1402 114.318 45.1534C114.318 47.2708 113.654 48.9839 112.324 50.2929C110.994 51.6018 109.258 52.2563 107.116 52.2563ZM104.338 48.0943C105.016 48.8171 105.942 49.1785 107.116 49.1785C108.29 49.1785 109.214 48.8204 109.888 48.1044C110.56 47.3878 110.895 46.4036 110.895 45.1517C110.895 43.9643 110.547 43.0092 109.851 42.2864C109.154 41.5636 108.244 41.2022 107.121 41.2022C105.972 41.2022 105.052 41.5605 104.362 42.2771C103.672 42.9938 103.326 43.9455 103.326 45.1324C103.324 46.3848 103.661 47.3721 104.338 48.0943Z" fill="#EF5B81" stroke="#EF5B81" stroke-width="0.28141" stroke-miterlimit="10"/>
<path d="M122.716 52.2563C120.56 52.2563 118.821 51.6012 117.499 50.2912C116.176 48.9811 115.515 47.2615 115.515 45.1324C115.515 43.1068 116.196 41.4323 117.557 40.1088C118.919 38.7853 120.639 38.1244 122.716 38.1261C124.781 38.1261 126.497 38.794 127.866 40.1298C129.234 41.4656 129.918 43.1402 129.917 45.1534C129.917 47.2708 129.253 48.9839 127.924 50.2929C126.595 51.6018 124.859 52.2563 122.716 52.2563ZM119.938 48.0943C120.616 48.8171 121.542 49.1785 122.716 49.1785C123.89 49.1785 124.814 48.8204 125.487 48.1044C126.159 47.3878 126.495 46.4036 126.495 45.1517C126.495 43.9643 126.147 43.0092 125.45 42.2864C124.753 41.5636 123.843 41.2022 122.72 41.2022C121.572 41.2022 120.652 41.5605 119.962 42.2771C119.271 42.9938 118.926 43.9455 118.926 45.1324C118.923 46.3848 119.261 47.3721 119.938 48.0943Z" fill="#EF5B81" stroke="#EF5B81" stroke-width="0.28141" stroke-miterlimit="10"/>
<path d="M139.264 51.9665H133.082C132.871 51.9691 132.66 51.9293 132.464 51.8494C132.268 51.7696 132.09 51.6513 131.94 51.5015C131.791 51.3517 131.672 51.1735 131.593 50.9773C131.513 50.7811 131.473 50.5709 131.476 50.3592V40.1575C131.476 39.5898 131.631 39.1419 131.94 38.8139C132.25 38.4858 132.67 38.3212 133.2 38.3201C133.716 38.3201 134.125 38.4847 134.429 38.8139C134.732 39.1431 134.884 39.5909 134.884 40.1575V48.7527H139.265C139.782 48.7527 140.201 48.9044 140.524 49.2078C140.682 49.3542 140.807 49.5327 140.891 49.7312C140.974 49.9298 141.014 50.1439 141.008 50.3592C141.008 50.8373 140.85 51.2244 140.534 51.5206C140.217 51.8168 139.794 51.9654 139.264 51.9665Z" fill="#EF5B81" stroke="#EF5B81" stroke-width="0.28141" stroke-miterlimit="10"/>
<path d="M65.211 52.2563C63.7397 52.2563 62.433 51.9853 61.2909 51.4434C60.1488 50.9014 59.3325 50.1658 58.8421 49.2364C58.6355 48.8367 58.5322 48.4753 58.5322 48.1523C58.5284 47.9377 58.5705 47.7248 58.6557 47.5279C58.7409 47.3309 58.8671 47.1544 59.026 47.0102C59.3522 46.7015 59.7872 46.5346 60.2361 46.5458C60.946 46.5458 61.5073 46.8817 61.9199 47.5535C62.5917 48.6766 63.7016 49.2364 65.2496 49.2331C65.908 49.2331 66.4178 49.1169 66.7789 48.8846C66.9475 48.7865 67.0867 48.645 67.1821 48.4749C67.2775 48.3047 67.3256 48.1122 67.3214 47.9171C67.3283 47.7187 67.267 47.524 67.1475 47.3654C67.0305 47.217 66.8175 47.088 66.5085 46.9783C66.2581 46.8863 66.0026 46.8086 65.7434 46.7456C65.5436 46.7003 65.1855 46.6261 64.6693 46.5231L64.3788 46.4652C63.9782 46.3879 63.7011 46.3325 63.5466 46.2972C63.392 46.2619 63.1208 46.2031 62.7336 46.1133C62.4496 46.0515 62.1692 45.9739 61.8939 45.8807C61.7192 45.8163 61.4706 45.7164 61.1481 45.5809C60.892 45.4826 60.6508 45.3489 60.4318 45.1836C60.2773 45.0554 60.0869 44.8875 59.8608 44.6798C59.6543 44.4991 59.4863 44.2786 59.367 44.0315C59.2533 43.7752 59.1628 43.5094 59.0965 43.237C59.017 42.9173 58.9778 42.589 58.9798 42.2595C58.9798 41.0598 59.4837 40.0694 60.4914 39.2884C61.4992 38.5074 62.7756 38.12 64.3208 38.1261C65.4388 38.1168 66.5453 38.3516 67.5632 38.8139C68.5637 39.2719 69.2831 39.8622 69.7215 40.585C69.8903 40.8661 69.9838 41.186 69.9927 41.5138C69.9976 41.7184 69.9586 41.9216 69.8785 42.1099C69.7984 42.2981 69.679 42.4671 69.5283 42.6055C69.2137 42.898 68.7963 43.0547 68.3669 43.0414C67.9017 43.0414 67.4627 42.8351 67.0501 42.4224C66.1851 41.5446 65.2365 41.1057 64.2041 41.1057C63.6112 41.1057 63.1306 41.2123 62.7622 41.4256C62.3938 41.6389 62.2099 41.9189 62.2105 42.2654C62.2105 42.6139 62.4431 42.8793 62.9075 43.059C63.3719 43.2387 64.0689 43.4075 64.9985 43.5629C65.489 43.6536 65.8529 43.7244 66.0903 43.7753C66.3276 43.8263 66.6795 43.9167 67.1459 44.0466C67.5141 44.1415 67.8734 44.2679 68.2199 44.4245C68.5287 44.5794 68.8292 44.7504 69.1202 44.9367C69.4261 45.1175 69.6926 45.358 69.9037 45.6438C70.097 45.9331 70.2533 46.2454 70.3689 46.5735C70.5078 46.9614 70.5766 47.3708 70.5722 47.7828C70.5722 49.0996 70.0753 50.1739 69.0816 51.0059C68.0878 51.8378 66.7976 52.2546 65.211 52.2563Z" fill="#EF5B81" stroke="#EF5B81" stroke-width="0.28141" stroke-miterlimit="10"/>
<path d="M62.8388 34.9887C62.5432 35.3095 62.1379 35.4697 61.6228 35.4691C61.1078 35.4685 60.6993 35.3084 60.3976 34.9887C60.0958 34.668 59.9449 34.2313 59.9449 33.6787V24.0825C59.9449 22.8139 60.5734 22.1793 61.8303 22.1787H69.6159C70.1315 22.1787 70.5399 22.3187 70.8411 22.5986C71.1423 22.8785 71.2932 23.2587 71.2938 23.739C71.2938 24.2166 71.1462 24.5936 70.8512 24.8702C70.5562 25.1468 70.1444 25.2851 69.6159 25.2851H63.2629V27.9648H68.6921C69.748 27.9648 70.2759 28.455 70.2759 29.4353C70.2759 30.4027 69.748 30.8864 68.6921 30.8864H63.2822V33.6753C63.2822 34.2307 63.1344 34.6685 62.8388 34.9887Z" fill="#EF5B81"/>
<path d="M61.6229 35.7101C61.0409 35.7101 60.5698 35.5228 60.2221 35.1533C59.8745 34.7838 59.704 34.2917 59.704 33.6786V24.0824C59.704 22.68 60.4396 21.9385 61.8303 21.9385H69.6159C70.192 21.9385 70.6598 22.1064 71.0066 22.4272C71.3534 22.748 71.5348 23.199 71.5348 23.7432C71.5348 24.2873 71.3602 24.7274 71.0158 25.0507C70.6715 25.374 70.2046 25.5294 69.6159 25.5294H63.504V27.7246H68.6922C70.2038 27.7246 70.517 28.6551 70.517 29.4361C70.517 30.217 70.2004 31.1282 68.6922 31.1282H63.5225V33.6753C63.5225 34.2875 63.3545 34.7829 63.0186 35.1482C62.6743 35.5228 62.2057 35.7101 61.6229 35.7101ZM61.8303 22.4222C60.7084 22.4222 60.186 22.9504 60.186 24.085V33.6753C60.186 34.1691 60.312 34.5436 60.5732 34.8207C60.8343 35.0979 61.1728 35.2255 61.6229 35.2255C62.073 35.2255 62.4114 35.0937 62.6617 34.8224C62.9119 34.5512 63.0413 34.1699 63.0413 33.6753V30.6521H68.6922C69.621 30.6521 70.0358 30.2784 70.0358 29.4411C70.0358 28.5904 69.6218 28.2108 68.6922 28.2108H63.0228V25.0532H69.6159C70.0845 25.0532 70.4347 24.9382 70.6866 24.703C70.9386 24.4679 71.0536 24.1597 71.0536 23.7474C71.0536 23.335 70.9302 23.0201 70.6766 22.7825C70.423 22.5448 70.0719 22.4222 69.6159 22.4222H61.8303Z" fill="#EF5B81"/>
<path d="M78.5898 35.658C76.6415 35.658 75.1268 35.1427 74.0457 34.112C72.9646 33.0813 72.4244 31.6422 72.4249 29.7947V23.8759C72.4249 23.3228 72.5758 22.8858 72.8776 22.565C73.1793 22.2442 73.5877 22.0846 74.1028 22.0863C74.6067 22.0863 75.0056 22.2464 75.2995 22.5667C75.5934 22.8869 75.7412 23.3239 75.7429 23.8776V29.6838C75.7429 30.5886 75.9786 31.3049 76.45 31.8328C76.9214 32.3608 77.6347 32.6247 78.5898 32.6247C79.5449 32.6247 80.2612 32.3608 80.7388 31.8328C81.2163 31.3049 81.4551 30.5886 81.4551 29.6838V23.8759C81.4551 23.3228 81.606 22.8858 81.9077 22.565C82.2095 22.2442 82.6179 22.0846 83.133 22.0863C83.6369 22.0863 84.0358 22.2464 84.3297 22.5667C84.6236 22.8869 84.7714 23.3239 84.7731 23.8776V29.7964C84.7731 31.6439 84.2264 33.083 83.133 34.1137C82.0396 35.1444 80.5252 35.6592 78.5898 35.658Z" fill="#EF5B81"/>
<path d="M78.5898 35.8991C76.5869 35.8991 75.0023 35.3566 73.8803 34.2858C72.7584 33.2151 72.184 31.7027 72.184 29.7947V23.8759C72.184 23.262 72.3586 22.7657 72.7021 22.4004C73.0456 22.0351 73.5209 21.8436 74.1029 21.8436C74.6848 21.8436 75.135 22.0317 75.4767 22.4021C75.8185 22.7724 75.9806 23.2629 75.9806 23.8759V29.6822C75.9806 30.5219 76.1981 31.1938 76.6272 31.6708C77.0564 32.1478 77.708 32.3821 78.5873 32.3821C79.4665 32.3821 80.13 32.1427 80.5574 31.6691C80.9849 31.1954 81.2158 30.5211 81.2158 29.6822V23.8759C81.2158 23.2612 81.3905 22.7657 81.734 22.4004C82.0774 22.0351 82.5527 21.8436 83.1347 21.8436C83.7167 21.8436 84.1668 22.0317 84.5086 22.4021C84.8504 22.7724 85.0125 23.2629 85.0125 23.8759V29.7947C85.0125 31.7027 84.4355 33.2143 83.2968 34.2875C82.1581 35.3608 80.5793 35.8991 78.5898 35.8991ZM74.1029 22.3257C73.6527 22.3257 73.3093 22.4575 73.0523 22.7304C72.7953 23.0034 72.666 23.3813 72.666 23.8759V29.7947C72.666 31.5658 73.1858 32.9598 74.212 33.9382C75.2382 34.9165 76.7146 35.417 78.5898 35.417C80.4525 35.417 81.9254 34.919 82.9676 33.9373C84.0098 32.9556 84.5321 31.5649 84.5321 29.7947V23.8759C84.5321 23.388 84.4045 23.0017 84.1534 22.7288C83.9023 22.4558 83.5655 22.3257 83.133 22.3257C82.6829 22.3257 82.3394 22.4575 82.0825 22.7304C81.8255 23.0034 81.6962 23.3813 81.6962 23.8759V29.6822C81.6962 30.6437 81.4342 31.4213 80.9169 31.9924C80.3995 32.5634 79.611 32.8632 78.5898 32.8632C77.5686 32.8632 76.7868 32.5702 76.2703 31.9916C75.7539 31.4129 75.5053 30.6437 75.5053 29.6822V23.8759C75.5053 23.3804 75.381 23.005 75.1266 22.7288C74.8721 22.4525 74.5395 22.3257 74.1029 22.3257Z" fill="#EF5B81"/>
<path d="M87.4871 22.1786H96.7625C97.2904 22.1786 97.7053 22.3186 98.007 22.5985C98.3088 22.8784 98.4597 23.2586 98.4597 23.7389C98.4597 24.2294 98.3119 24.6098 98.0163 24.8802C97.7207 25.1506 97.3027 25.2855 96.7625 25.285H93.8031V33.6752C93.8031 34.2284 93.6553 34.6651 93.3597 34.9853C93.0641 35.3055 92.6652 35.4657 92.163 35.4657C91.6474 35.4657 91.239 35.3055 90.9378 34.9853C90.6366 34.6651 90.4857 34.2284 90.4851 33.6752V25.2858H87.4871C86.9597 25.2858 86.5482 25.1475 86.2526 24.871C85.957 24.5944 85.8092 24.2173 85.8092 23.7398C85.8092 23.2628 85.9601 22.8826 86.2618 22.5994C86.5636 22.3161 86.972 22.1758 87.4871 22.1786Z" fill="#EF5B81"/>
<path d="M92.1629 35.71C91.581 35.71 91.1099 35.5228 90.7622 35.1533C90.4145 34.7838 90.244 34.2925 90.244 33.6786V25.5294H87.4879C86.9 25.5294 86.4281 25.3681 86.088 25.049C85.7478 24.7299 85.569 24.2873 85.569 23.7423C85.569 23.1973 85.747 22.7556 86.0972 22.4264C86.4474 22.0972 86.9109 21.9376 87.4879 21.9376H96.7624C97.3503 21.9376 97.8256 22.1056 98.1716 22.4264C98.5176 22.7472 98.6998 23.1981 98.6998 23.7423C98.6998 24.3008 98.5243 24.7442 98.1783 25.0608C97.8323 25.3774 97.3629 25.5294 96.7624 25.5294H94.0432V33.6753C94.0432 34.2875 93.8753 34.7829 93.5393 35.1482C93.2034 35.5135 92.7331 35.71 92.1629 35.71ZM87.4879 22.4222C87.031 22.4222 86.6842 22.5397 86.4264 22.7808C86.1686 23.0218 86.0502 23.3342 86.0502 23.7457C86.0502 24.1572 86.1702 24.4704 86.4171 24.7013C86.664 24.9323 87.0251 25.0515 87.4879 25.0515H90.7252V33.6753C90.7252 34.169 90.852 34.5436 91.1124 34.8207C91.3727 35.0978 91.7128 35.2255 92.1629 35.2255C92.5988 35.2255 92.933 35.0936 93.1824 34.8224C93.4318 34.5511 93.5603 34.1732 93.5603 33.6753V25.049H96.7607C97.2369 25.049 97.6005 24.9331 97.8525 24.7064C98.1044 24.4796 98.2178 24.1664 98.2178 23.7432C98.2178 23.3199 98.0943 23.0159 97.8415 22.7782C97.5888 22.5406 97.2302 22.4197 96.7616 22.4197L87.4879 22.4222Z" fill="#EF5B81"/>
<path d="M105.661 35.658C103.713 35.658 102.198 35.1426 101.117 34.112C100.036 33.0813 99.4954 31.6422 99.496 29.7946V23.8759C99.496 23.3227 99.6468 22.8857 99.9486 22.565C100.25 22.2442 100.659 22.084 101.174 22.0846C101.678 22.0846 102.077 22.2447 102.371 22.565C102.664 22.8852 102.812 23.3222 102.814 23.8759V29.6821C102.814 30.5868 103.05 31.3032 103.521 31.8311C103.992 32.359 104.706 32.623 105.661 32.623C106.616 32.623 107.332 32.359 107.81 31.8311C108.287 31.3032 108.526 30.5868 108.526 29.6821V23.8759C108.526 23.3227 108.677 22.8857 108.978 22.565C109.279 22.2442 109.688 22.084 110.204 22.0846C110.708 22.0846 111.107 22.2447 111.401 22.565C111.695 22.8852 111.842 23.3222 111.844 23.8759V29.7946C111.844 31.6422 111.297 33.0813 110.204 34.112C109.111 35.1426 107.596 35.658 105.661 35.658Z" fill="#EF5B81"/>
<path d="M105.661 35.8991C103.657 35.8991 102.073 35.3566 100.951 34.2858C99.8294 33.2151 99.255 31.7027 99.255 29.7947V23.8759C99.255 23.262 99.4297 22.7657 99.7731 22.4004C100.117 22.0351 100.592 21.8436 101.174 21.8436C101.756 21.8436 102.206 22.0317 102.548 22.4021C102.89 22.7724 103.052 23.2629 103.052 23.8759V29.6822C103.052 30.5219 103.269 31.1938 103.697 31.6708C104.126 32.1478 104.779 32.3821 105.658 32.3821C106.538 32.3821 107.201 32.1427 107.628 31.6691C108.056 31.1954 108.283 30.5211 108.283 29.6822V23.8759C108.283 23.2612 108.457 22.7649 108.801 22.4004C109.144 22.0359 109.62 21.8436 110.202 21.8436C110.784 21.8436 111.234 22.0317 111.575 22.4021C111.917 22.7724 112.079 23.2629 112.079 23.8759V29.7947C112.079 31.7027 111.502 33.2143 110.364 34.2875C109.225 35.3608 107.65 35.8991 105.661 35.8991ZM101.174 22.3257C100.724 22.3257 100.38 22.4575 100.123 22.7304C99.8664 23.0034 99.7362 23.3813 99.7362 23.8759V29.7947C99.7362 31.5658 100.257 32.9598 101.283 33.9382C102.309 34.9165 103.786 35.417 105.661 35.417C107.536 35.417 108.996 34.919 110.039 33.9373C111.081 32.9556 111.603 31.5649 111.603 29.7947V23.8759C111.603 23.388 111.476 23.0017 111.224 22.7288C110.972 22.4558 110.64 22.3257 110.204 22.3257C109.754 22.3257 109.41 22.4575 109.154 22.7304C108.897 23.0034 108.766 23.3813 108.766 23.8759V29.6822C108.766 30.6437 108.504 31.4213 107.988 31.9924C107.471 32.5634 106.682 32.8632 105.661 32.8632C104.64 32.8632 103.858 32.5702 103.341 31.9916C102.825 31.4129 102.573 30.6437 102.573 29.6822V23.8759C102.573 23.3804 102.449 23.005 102.194 22.7288C101.94 22.4525 101.61 22.3257 101.174 22.3257Z" fill="#EF5B81"/>
<path d="M123.947 30.6059L125.907 32.7734C126.272 33.1883 126.454 33.6081 126.454 34.0331C126.459 34.2262 126.422 34.4182 126.346 34.5957C126.269 34.7731 126.155 34.9319 126.012 35.061C125.71 35.3333 125.315 35.4783 124.909 35.4657C124.457 35.4657 124.054 35.2835 123.702 34.919L119.969 30.9418H117.327V33.6753C117.327 34.2285 117.179 34.6652 116.884 34.9854C116.589 35.3056 116.19 35.4657 115.686 35.4657C115.171 35.4657 114.762 35.3056 114.461 34.9854C114.16 34.6652 114.009 34.2285 114.009 33.6753V24.0825C114.009 22.8139 114.637 22.1793 115.894 22.1787H121.851C123.321 22.1787 124.465 22.5622 125.283 23.3292C126.1 24.0962 126.508 25.1706 126.508 26.5523C126.51 28.6137 125.657 29.9649 123.947 30.6059ZM117.327 25.1759V27.9472H121.682C122.146 27.9472 122.511 27.8246 122.773 27.5802C123.035 27.3358 123.169 26.9923 123.169 26.5523C123.169 25.6353 122.673 25.1765 121.68 25.1759H117.327Z" fill="#EF5B81"/>
<path d="M124.909 35.7101C124.39 35.7101 123.926 35.501 123.529 35.0895L119.865 31.1853H117.571V33.6753C117.571 34.2875 117.403 34.7829 117.067 35.1482C116.731 35.5136 116.262 35.7067 115.692 35.7067C115.122 35.7067 114.639 35.5228 114.289 35.1533C113.938 34.7838 113.771 34.2925 113.771 33.6786V24.0824C113.771 22.68 114.506 21.9385 115.897 21.9385H121.854C123.38 21.9385 124.59 22.3466 125.45 23.1528C126.31 23.959 126.751 25.1078 126.751 26.5522C126.751 28.5812 125.946 29.9744 124.354 30.6974L126.086 32.6121C126.491 33.0731 126.695 33.551 126.695 34.0397C126.7 34.2664 126.656 34.4914 126.566 34.6995C126.476 34.9075 126.342 35.0936 126.173 35.2448C125.827 35.5568 125.374 35.7234 124.909 35.7101ZM117.089 30.7041H120.073L123.877 34.7578C124.182 35.0743 124.52 35.2289 124.909 35.2289C125.254 35.2415 125.592 35.1186 125.848 34.8862C125.968 34.78 126.062 34.6488 126.125 34.5019C126.188 34.3551 126.219 34.1961 126.214 34.0364C126.214 33.6719 126.05 33.2999 125.726 32.9321L123.531 30.5043L123.862 30.38C125.482 29.7728 126.27 28.5207 126.27 26.5522C126.27 25.2455 125.884 24.2202 125.121 23.5047C124.358 22.7892 123.254 22.4222 121.854 22.4222H115.899C114.777 22.4222 114.254 22.9504 114.254 24.085V33.6753C114.254 34.1691 114.381 34.5436 114.641 34.8207C114.902 35.0979 115.241 35.2255 115.691 35.2255C116.128 35.2255 116.461 35.0937 116.711 34.8224C116.962 34.5512 117.091 34.1699 117.091 33.6753L117.089 30.7041ZM121.685 28.1848H117.089V24.9357H121.685C123.112 24.9357 123.415 25.8149 123.415 26.5522C123.415 27.0603 123.256 27.4651 122.942 27.7565C122.628 28.0479 122.21 28.1881 121.685 28.1881V28.1848ZM117.57 27.7036H121.685C122.09 27.7036 122.394 27.6045 122.614 27.4004C122.834 27.1964 122.933 26.9226 122.933 26.5489C122.933 25.7637 122.548 25.4135 121.685 25.4135H117.57V27.7036Z" fill="#EF5B81"/>
<path d="M137.916 35.375H130.206C128.936 35.375 128.301 34.7405 128.301 33.4713V24.0825C128.301 22.8139 128.93 22.1793 130.187 22.1787H137.878C138.394 22.1787 138.802 22.3187 139.104 22.5986C139.405 22.8785 139.556 23.2587 139.556 23.739C139.556 24.2166 139.408 24.5936 139.113 24.8702C138.817 25.1468 138.406 25.2851 137.878 25.2851H131.619V27.2837H137.2C138.256 27.2837 138.784 27.7739 138.784 28.7542C138.784 29.7345 138.256 30.2272 137.2 30.2322H131.619V32.2645H137.918C138.433 32.2645 138.842 32.4059 139.143 32.6886C139.444 32.9713 139.595 33.3515 139.596 33.829C139.596 34.3071 139.448 34.6842 139.152 34.9602C138.857 35.2362 138.445 35.3745 137.916 35.375Z" fill="#EF5B81"/>
<path d="M137.916 35.616H130.206C128.803 35.616 128.061 34.8745 128.061 33.4712V24.0824C128.061 22.68 128.796 21.9385 130.187 21.9385H137.878C138.454 21.9385 138.922 22.1064 139.268 22.4272C139.614 22.748 139.797 23.199 139.797 23.7432C139.797 24.2873 139.622 24.7282 139.277 25.0507C138.932 25.3732 138.467 25.5302 137.878 25.5302H131.86V27.0469H137.2C138.707 27.0469 139.024 27.9774 139.024 28.7583C139.024 29.5393 138.707 30.469 137.2 30.469H131.86V32.0243H137.916C138.492 32.0243 138.96 32.1922 139.306 32.513C139.652 32.8338 139.835 33.2848 139.835 33.829C139.835 34.3731 139.66 34.8132 139.315 35.1357C138.97 35.4581 138.505 35.616 137.916 35.616ZM130.19 22.4197C129.068 22.4197 128.546 22.9479 128.546 24.0824V33.4712C128.546 34.6058 129.074 35.1348 130.209 35.1348H137.919C138.388 35.1348 138.738 35.0198 138.989 34.7846C139.24 34.5495 139.356 34.2413 139.356 33.829C139.356 33.4166 139.234 33.1017 138.98 32.864C138.726 32.6264 138.375 32.5055 137.919 32.5055H131.382V29.9861H137.203C138.132 29.9861 138.547 29.6065 138.547 28.7567C138.547 27.9068 138.133 27.5264 137.203 27.5264H131.382V25.049H137.882C138.35 25.049 138.7 24.934 138.952 24.6988C139.204 24.4637 139.319 24.1555 139.319 23.7432C139.319 23.3308 139.196 23.0159 138.942 22.7783C138.689 22.5406 138.338 22.4197 137.882 22.4197H130.19Z" fill="#EF5B81"/>
<rect x="0.00878906" width="53" height="53" rx="7" fill="#F3F3F3"/>
<path d="M35.1888 20.735C36.8516 21.4186 38.2859 22.3726 39.4792 23.6743C41.124 25.4433 42.172 27.6838 42.4756 30.0801C42.7687 32.256 42.6167 34.3781 41.6098 36.3651C40.0671 39.4076 37.7963 41.6666 34.4716 42.692C32.1723 43.4016 29.8528 44.0356 27.5367 44.7007C26.0396 45.1324 24.542 45.564 23.0439 45.9957C21.02 46.5768 19.175 45.5926 18.5846 43.5729C17.162 38.6988 15.7509 33.8214 14.3513 28.9406C12.9634 24.1353 11.5758 19.3312 10.1885 14.5282C9.61743 12.5564 10.6445 10.6703 12.6163 10.0975C16.3673 9.00917 20.1183 7.92249 23.8694 6.83749C26.277 6.13963 28.6024 6.45539 30.832 7.49756C34.0274 8.99237 35.6591 11.641 36.1705 15.0413C36.4585 16.9577 36.1058 18.7926 35.2694 20.5369C35.2392 20.5881 35.2215 20.6477 35.1888 20.735ZM31.6684 41.2845C32.3285 41.0981 32.9894 40.9159 33.6478 40.7244C38.1549 39.4126 41.0933 34.7838 40.3509 30.1675C39.7085 26.1558 36.7911 23.094 32.8072 22.2542C32.3873 22.166 31.9615 22.114 31.5055 22.0401C31.6004 21.9393 31.6659 21.8646 31.7365 21.7965C33.259 20.3328 34.0685 18.5399 34.1307 16.4354C34.1886 14.4971 33.5344 12.7815 32.3411 11.2699C30.7892 9.30309 28.7493 8.35414 26.2518 8.55233C25.3323 8.62539 24.4194 8.90168 23.5234 9.15529C20.1643 10.107 16.8096 11.0767 13.4594 12.0643C12.4635 12.3557 11.9991 13.3802 12.3812 14.3619C12.404 14.5314 12.4357 14.6996 12.476 14.8658C15.1477 24.1269 17.8221 33.3866 20.4993 42.645C20.7974 43.6754 21.7069 44.186 22.739 43.8954C23.6382 43.6418 24.5367 43.3843 25.4347 43.1228C27.5129 42.5126 29.5908 41.8998 31.6684 41.2845Z" fill="#803588"/>
<path d="M31.6687 41.2845C29.5888 41.9004 27.5087 42.5131 25.4283 43.1228C24.5325 43.3854 23.6339 43.6429 22.7326 43.8954C21.7005 44.186 20.791 43.6754 20.4929 42.645C17.819 33.3867 15.146 24.1281 12.4738 14.8692C12.4334 14.703 12.4017 14.5348 12.3789 14.3653C12.4906 14.2813 12.5914 14.1621 12.7148 14.1226C13.7343 13.808 14.7566 13.5023 15.7817 13.2056C17.4772 12.7168 19.1719 12.2272 20.8733 11.7603C21.6022 11.5604 22.3387 11.3337 23.0844 11.264C24.6613 11.1069 26.2418 11.5244 27.5353 12.4397C28.7295 13.2644 29.56 14.3712 30.1605 15.693C30.7685 17.0308 30.9314 18.4181 30.7441 19.8398C30.5417 21.3691 29.8472 22.6951 28.8126 23.8364C28.6614 24.0043 28.4624 24.1269 28.2365 24.31C28.9377 24.4007 29.5147 24.4259 30.0664 24.5577C31.2287 24.8357 32.3153 25.2951 33.2886 26.0164C34.2393 26.721 35.0522 27.5457 35.6627 28.5585C36.3429 29.6796 36.8014 30.8855 36.9098 32.1956C37.0777 34.1942 36.7166 36.0871 35.6375 37.8087C34.943 38.918 34.0638 39.8477 32.9502 40.5405C32.5286 40.8 32.097 41.0376 31.6687 41.2845Z" fill="#803588"/>
<path d="M31.6684 41.2845C32.0942 41.0376 32.5258 40.8 32.9441 40.5405C34.0601 39.8477 34.9394 38.918 35.6314 37.8087C36.7105 36.0871 37.0691 34.1976 36.9036 32.1956C36.7953 30.8855 36.3368 29.6762 35.6566 28.5585C35.0427 27.5457 34.2331 26.721 33.2825 26.0165C32.3092 25.2951 31.2225 24.8357 30.0602 24.5578C29.5085 24.4259 28.9316 24.4007 28.2304 24.31C28.4563 24.1269 28.6553 24.0027 28.8065 23.8364C29.8427 22.696 30.5372 21.3691 30.738 19.8399C30.9252 18.4181 30.7623 17.0308 30.1543 15.693C29.5539 14.3712 28.7267 13.2644 27.5291 12.4397C26.2356 11.5244 24.6551 11.1069 23.0783 11.264C22.3326 11.3337 21.5961 11.5604 20.8672 11.7603C19.1658 12.2272 17.4711 12.7168 15.7756 13.2056C14.7505 13.5017 13.7282 13.8074 12.7087 14.1226C12.5827 14.1621 12.4819 14.2822 12.3728 14.3653C11.9907 13.3836 12.4567 12.3591 13.451 12.0677C16.8062 11.0846 20.1634 10.1132 23.5225 9.15363C24.4186 8.9017 25.3314 8.62373 26.251 8.55067C28.7485 8.35248 30.7858 9.30143 32.3403 11.2682C33.5336 12.7798 34.1878 14.4955 34.1298 16.4337C34.0677 18.5382 33.2581 20.3311 31.7356 21.7949C31.6651 21.8629 31.5996 21.9376 31.5047 22.0384C31.9607 22.1123 32.3873 22.1644 32.8063 22.2526C36.7886 23.0923 39.7077 26.1542 40.3526 30.1658C41.095 34.7846 38.1566 39.411 33.6495 40.7227C32.9919 40.9159 32.331 41.0981 31.6684 41.2845Z" fill="#4C215C"/>
<path d="M67.2668 12.8931L67.1929 12.8192C67.2722 12.8005 67.3504 12.7775 67.4272 12.7504L67.5002 12.8234C67.4263 12.8495 67.3482 12.873 67.2668 12.8931Z" fill="#F3F3F3"/>
<path d="M67.5003 12.8235L67.4272 12.7504C68.1125 12.5052 68.4526 11.9753 68.4577 11.2631C68.4577 10.7055 68.3292 10.2966 68.0319 9.99927L68.1058 10.0732C68.4031 10.3705 68.5341 10.7786 68.5307 11.3328C68.5257 12.0458 68.1856 12.5749 67.5003 12.8201" fill="#F3F3F3"/>
<path d="M69.4312 7.94525L69.3582 7.87219C69.7225 8.07961 70.0581 8.33369 70.3567 8.628L70.4297 8.70106C70.1312 8.40675 69.7955 8.15267 69.4312 7.94525Z" fill="#F3F3F3"/>
<path d="M68.9825 7.7L68.9094 7.6261C69.0774 7.71596 69.2117 7.78818 69.3453 7.86544L69.4183 7.9385C69.2848 7.86124 69.1471 7.78902 68.9825 7.7Z" fill="#F3F3F3"/>
<path d="M69.4186 7.93883L69.3451 7.86536L69.3578 7.87211L69.4312 7.94558L69.4186 7.93883Z" fill="#F3F3F3"/>
<path d="M63.3656 13.0178L63.2921 12.9443C63.3033 12.9563 63.3165 12.9663 63.331 12.9739L63.4044 13.0482C63.3902 13.0398 63.3772 13.0296 63.3656 13.0178Z" fill="#F3F3F3"/>
<path d="M63.4044 13.0456L63.3309 12.9713C63.3455 12.9799 63.3611 12.9867 63.3774 12.9916L63.4509 13.0659C63.4349 13.0603 63.4194 13.0535 63.4044 13.0456Z" fill="#F3F3F3"/>
<path d="M63.4504 13.0658L63.377 12.9915C63.3962 12.9979 63.416 13.0025 63.4361 13.005L63.5095 13.0793C63.4895 13.0763 63.4698 13.0717 63.4504 13.0658Z" fill="#F3F3F3"/>
<path d="M63.5089 13.0788L63.4358 13.0049C63.4739 13.0106 63.5123 13.0131 63.5508 13.0124H63.5567L63.6298 13.0855H63.6247C63.586 13.086 63.5473 13.0838 63.5089 13.0788Z" fill="#F3F3F3"/>
<path d="M63.63 13.0856L63.5569 13.0126H63.7383L63.8113 13.0856H63.63Z" fill="#F3F3F3"/>
<path d="M63.8113 13.0839L63.7383 13.0109H63.8323C64.0003 13.0109 64.1682 13.0109 64.3362 13.0109H64.8182H64.9123L64.9854 13.0839H64.8921C64.7309 13.0839 64.5705 13.0839 64.4093 13.0839C64.248 13.0839 64.0734 13.0839 63.9054 13.0839H63.8113Z" fill="#F3F3F3"/>
<path d="M64.986 13.0897L64.913 13.0167C65.1279 13.0167 65.3429 13.0116 65.5579 13.0024C65.9795 12.9902 66.4001 12.954 66.8176 12.894L66.8915 12.9671C66.4726 13.0276 66.0506 13.0638 65.6276 13.0754C65.4126 13.0855 65.1977 13.0889 64.9827 13.0897" fill="#F3F3F3"/>
<path d="M66.8948 12.9671L66.8209 12.8941C66.9469 12.8739 67.0729 12.8496 67.1929 12.8193L67.2668 12.8932C67.1442 12.9226 67.0199 12.947 66.8948 12.9671Z" fill="#F3F3F3"/>
<path d="M65.2239 8.92518L65.1508 8.85212C64.8712 8.57247 64.7309 8.1803 64.7494 7.73101C64.7729 7.07934 65.0753 6.65777 65.7093 6.43103L65.7832 6.50409C65.1483 6.73167 64.846 7.1524 64.8233 7.80407C64.8065 8.25588 64.9443 8.64386 65.2239 8.92518Z" fill="#F3F3F3"/>
<path d="M65.7833 6.50408L65.7094 6.43102L65.7404 6.4201C65.9991 6.33108 66.2728 6.28322 66.5391 6.21352C66.6155 6.19336 66.6902 6.16985 66.7624 6.14465L66.8363 6.21771C66.7633 6.24375 66.6885 6.26642 66.6121 6.28658C66.3459 6.35712 66.073 6.40415 65.8135 6.494L65.7833 6.50408Z" fill="#F3F3F3"/>
<path d="M66.8365 6.2144L66.7626 6.14133C67.1312 6.00949 67.4386 5.79618 67.6149 5.40821C67.7664 5.08639 67.8165 4.72616 67.7586 4.37523C67.7007 4.0243 67.5376 3.69924 67.2908 3.44312L67.3647 3.51618C67.6122 3.77294 67.7757 4.09894 67.8334 4.45085C67.8912 4.80276 67.8404 5.16391 67.688 5.48631C67.5117 5.87428 67.2043 6.08759 66.8365 6.21943" fill="#F3F3F3"/>
<path d="M60.7494 15.4602L60.6763 15.3863C60.411 15.121 60.2716 14.7296 60.2716 14.2291C60.2682 10.0812 60.2682 5.93375 60.2716 1.7869C60.2716 1.04706 60.5739 0.527231 61.1416 0.325684L61.2146 0.398745C60.6478 0.602812 60.3463 1.12012 60.3446 1.86081C60.3407 6.00765 60.3407 10.1548 60.3446 14.3022C60.3446 14.806 60.484 15.194 60.7494 15.4602Z" fill="#F3F3F3"/>
<path d="M61.2182 0.398075L61.1451 0.325014C61.2359 0.292093 61.3295 0.267635 61.4248 0.251953L61.4979 0.325014C61.4027 0.340649 61.3092 0.364533 61.2182 0.396396" fill="#F3F3F3"/>
<path d="M61.4975 0.326691L61.4244 0.25195C61.5239 0.236309 61.6244 0.228168 61.7251 0.227596C62.3692 0.220878 63.0133 0.21248 63.6566 0.209961L63.7305 0.283862C63.0855 0.283862 62.4414 0.294779 61.799 0.300657C61.6983 0.301229 61.5978 0.30937 61.4983 0.325011" fill="#F3F3F3"/>
<path d="M63.7316 0.285571L63.6577 0.21167H63.9819C64.9468 0.21167 65.9134 0.228466 66.8707 0.295648C66.9891 0.304046 67.1059 0.316643 67.2201 0.333438L67.294 0.406499C67.1789 0.389704 67.0622 0.377107 66.9446 0.369549C65.9839 0.305726 65.0198 0.285571 64.0558 0.285571H63.7316Z" fill="#F3F3F3"/>
<path d="M67.2939 0.402285L67.22 0.329224C67.4447 0.363017 67.6664 0.41526 67.8826 0.485423L67.9556 0.558484C67.7397 0.488413 67.5183 0.436171 67.2939 0.402285Z" fill="#F3F3F3"/>
<path d="M67.9556 0.558413L67.8826 0.485352C68.1524 0.573001 68.4125 0.688388 68.6585 0.829662L68.7324 0.902723C68.4861 0.761456 68.2257 0.64607 67.9556 0.558413Z" fill="#F3F3F3"/>
<path d="M68.7323 0.902773L68.6584 0.829712C68.9735 1.01117 69.2632 1.23339 69.5201 1.49062L69.594 1.56368C69.3367 1.30684 69.0471 1.08466 68.7323 0.902773Z" fill="#F3F3F3"/>
<path d="M69.4315 7.94553C70.9431 8.82226 71.6485 10.1458 71.5427 11.8824C71.4344 13.6518 70.498 14.8469 68.8403 15.3944C68.0079 15.6648 67.1431 15.8229 66.2689 15.8647C65.7079 15.8915 65.1461 15.9008 64.5834 15.9008C63.6798 15.9008 62.7754 15.8764 61.8718 15.8638C60.885 15.8504 60.3459 15.2903 60.345 14.3018C60.3417 10.1539 60.3417 6.00675 60.345 1.86047C60.345 0.898075 60.8556 0.311907 61.7954 0.30267C62.5512 0.295112 63.3002 0.285034 64.0527 0.285034C65.0168 0.285034 65.9842 0.30183 66.9415 0.369012C69.6196 0.545367 71.4075 3.18984 70.6131 5.66636C70.3737 6.41124 69.9051 6.98146 69.3005 7.45593L68.9797 7.70787C69.1527 7.79185 69.2912 7.86659 69.4315 7.94553ZM67.2674 12.8935C68.1072 12.6903 68.527 12.126 68.5312 11.3366C68.5371 10.4128 68.1752 9.90306 67.3085 9.62425C67.1078 9.55959 66.897 9.52264 66.6904 9.47477C66.3738 9.40255 66.043 9.36896 65.7423 9.25475C65.1192 9.01625 64.7993 8.48047 64.8236 7.80444C64.8471 7.14269 65.1595 6.7186 65.8137 6.49438C66.0732 6.40453 66.3461 6.3575 66.6123 6.28696C67.0784 6.16351 67.4773 5.95104 67.6881 5.48496C68.1777 4.40752 67.5411 3.15877 66.373 3.05967C65.9892 3.02692 65.6029 3.01685 65.2141 3.01685C64.5977 3.01685 63.9737 3.04204 63.3389 3.04204C63.3232 3.11548 63.312 3.1898 63.3053 3.26458C63.3053 6.43504 63.3022 9.60605 63.296 12.7776C63.296 13.0354 63.4111 13.0858 63.6252 13.0858H63.9057C64.0737 13.0858 64.2416 13.0858 64.4096 13.0858C64.5776 13.0858 64.7312 13.0858 64.8925 13.0858C65.1385 13.0858 65.3846 13.0858 65.6306 13.0716C66.179 13.0472 66.7375 13.017 67.2665 12.8893" fill="#F3F3F3"/>
<path d="M104.827 0.518129L104.753 0.445068H104.824C104.88 0.447442 104.936 0.452767 104.992 0.461024L105.065 0.534085C105.009 0.526527 104.952 0.520649 104.897 0.518129H104.827Z" fill="#F3F3F3"/>
<path d="M105.066 0.53583L104.993 0.462769C105.073 0.474895 105.152 0.49343 105.23 0.518194L105.304 0.592095C105.226 0.566748 105.147 0.547928 105.066 0.53583Z" fill="#F3F3F3"/>
<path d="M105.305 0.592089L105.231 0.518188C105.324 0.547718 105.413 0.587136 105.497 0.635758L105.571 0.708819C105.486 0.661113 105.397 0.622007 105.305 0.592089Z" fill="#F3F3F3"/>
<path d="M105.57 0.708803L105.496 0.635742C105.598 0.694742 105.692 0.767029 105.776 0.850726L105.849 0.923787C105.766 0.840372 105.672 0.768112 105.57 0.708803Z" fill="#F3F3F3"/>
<path d="M98.8653 12.2608L98.7922 12.1877C98.9053 12.3002 99.0326 12.3973 99.171 12.4766L99.244 12.5497C99.1055 12.4707 98.9781 12.3735 98.8653 12.2608Z" fill="#F3F3F3"/>
<path d="M99.244 12.5489L99.1709 12.4758C99.2963 12.5473 99.4289 12.6052 99.5664 12.6488L99.6395 12.7227C99.502 12.6785 99.3695 12.6203 99.244 12.5489Z" fill="#F3F3F3"/>
<path d="M99.6397 12.7227L99.5667 12.6488C99.7036 12.6929 99.8441 12.7252 99.9865 12.7454L100.06 12.8184C99.9173 12.7981 99.7768 12.7661 99.6397 12.7227Z" fill="#F3F3F3"/>
<path d="M100.056 12.8184L99.9832 12.7454C100.075 12.7588 100.17 12.7689 100.268 12.7748C100.385 12.7823 100.504 12.7857 100.622 12.7857H100.642L100.716 12.8587H100.699C100.58 12.8587 100.462 12.8587 100.344 12.8478C100.246 12.8419 100.151 12.8327 100.06 12.8184" fill="#F3F3F3"/>
<path d="M100.716 12.8587L100.642 12.7857C100.793 12.7857 100.944 12.779 101.093 12.7655C101.17 12.7596 101.244 12.7504 101.317 12.7386L101.39 12.8117C101.318 12.8235 101.243 12.8327 101.167 12.8394C101.017 12.852 100.867 12.8587 100.716 12.8587Z" fill="#F3F3F3"/>
<path d="M101.39 12.8117L101.317 12.7386C101.467 12.715 101.615 12.6774 101.758 12.6261L101.832 12.7C101.688 12.7506 101.54 12.788 101.39 12.8117Z" fill="#F3F3F3"/>
<path d="M101.831 12.7001L101.757 12.6262C102.039 12.5316 102.292 12.3682 102.495 12.1509C102.697 11.9336 102.843 11.6692 102.917 11.3816C103.117 10.699 103.226 9.99317 103.243 9.28215C103.284 7.0013 103.259 4.71961 103.265 2.43792C103.26 2.17514 103.28 1.91251 103.325 1.65357C103.434 1.10015 103.78 0.698733 104.249 0.531616L104.322 0.605517C103.856 0.773473 103.51 1.17321 103.398 1.72663C103.353 1.98557 103.333 2.24821 103.338 2.51098C103.332 4.79267 103.358 7.0752 103.316 9.35521C103.3 10.0663 103.19 10.7721 102.99 11.4547C102.916 11.7421 102.771 12.0065 102.568 12.224C102.366 12.4414 102.113 12.605 101.831 12.7001Z" fill="#F3F3F3"/>
<path d="M104.319 0.604614L104.246 0.530713C104.329 0.501022 104.415 0.479095 104.503 0.46521L104.576 0.538271C104.488 0.552438 104.402 0.574647 104.319 0.604614Z" fill="#F3F3F3"/>
<path d="M104.576 0.538286L104.503 0.465225C104.584 0.451672 104.665 0.44493 104.747 0.445071L104.82 0.518132C104.738 0.518829 104.657 0.525566 104.576 0.538286Z" fill="#F3F3F3"/>
<path d="M104.821 0.51854L104.747 0.445068H104.753L104.827 0.51854H104.821Z" fill="#F3F3F3"/>
<path d="M96.7098 14.3457L96.6359 14.2726C95.8801 13.5168 95.4207 12.4982 95.1932 11.278C95.0871 10.6485 95.031 10.0117 95.0252 9.37336C94.9983 8.29676 95.0185 7.21848 95.0185 6.1402C95.0185 4.83602 95.0084 3.53687 95.0277 2.22933C95.0291 1.9053 95.0876 1.58405 95.2007 1.28038C95.2658 1.10737 95.3681 0.950798 95.5005 0.821776C95.6329 0.692753 95.792 0.59444 95.9666 0.533813L96.0397 0.606875C95.8652 0.667606 95.7062 0.765966 95.574 0.894983C95.4418 1.024 95.3396 1.18052 95.2746 1.35344C95.1617 1.65719 95.1029 1.97836 95.1008 2.30239C95.0815 3.60574 95.0916 4.90992 95.0924 6.21326C95.0924 7.29154 95.0722 8.36982 95.0991 9.44642C95.1044 10.0847 95.1606 10.7216 95.2671 11.351C95.4946 12.5721 95.9557 13.5907 96.7107 14.3457" fill="#F3F3F3"/>
<path d="M96.0362 0.606308L95.9631 0.533247C96.0477 0.5029 96.1348 0.480411 96.2235 0.466064L96.2965 0.539965C96.2079 0.554131 96.1208 0.576337 96.0362 0.606308Z" fill="#F3F3F3"/>
<path d="M96.2964 0.539978L96.2234 0.466078C96.3067 0.45275 96.3909 0.446011 96.4753 0.445923L96.5484 0.518984C96.4626 0.519127 96.3769 0.526148 96.2923 0.539978" fill="#F3F3F3"/>
<path d="M96.5526 0.518984L96.4795 0.445923H96.545C96.608 0.447655 96.6708 0.453265 96.7331 0.462719L96.8062 0.53578C96.7438 0.526742 96.681 0.521135 96.6181 0.518984H96.5526Z" fill="#F3F3F3"/>
<path d="M96.8062 0.536562L96.7332 0.463501C96.8158 0.475879 96.8972 0.494978 96.9767 0.520606L97.0498 0.593667C96.9703 0.568039 96.8888 0.54894 96.8062 0.536562Z" fill="#F3F3F3"/>
<path d="M97.0499 0.593691L96.9768 0.52063C97.0707 0.550517 97.1611 0.590501 97.2464 0.639879L97.3194 0.71294C97.234 0.663903 97.1436 0.623936 97.0499 0.593691Z" fill="#F3F3F3"/>
<path d="M97.3195 0.712954L97.2465 0.639893C97.346 0.696638 97.4375 0.766394 97.5185 0.847319L97.5924 0.92122C97.5112 0.839954 97.4194 0.769913 97.3195 0.712954Z" fill="#F3F3F3"/>
<path d="M104.828 0.518555H104.897C105.643 0.550466 106.188 1.07449 106.279 1.85465C106.301 2.02872 106.313 2.20399 106.315 2.37951C106.305 4.961 106.331 7.54417 106.258 10.124C106.22 10.9743 106.05 11.8135 105.754 12.6114C105.082 14.4749 103.654 15.449 101.723 15.7186C101.373 15.7677 101.02 15.7926 100.666 15.7933C100.142 15.7944 99.6183 15.7352 99.1069 15.617C96.8395 15.0888 95.6739 13.5453 95.2649 11.3509C95.1585 10.7215 95.1023 10.0846 95.097 9.44628C95.0701 8.36968 95.0894 7.2914 95.0903 6.21312C95.0903 4.90978 95.0794 3.60559 95.0987 2.30225C95.1008 1.97821 95.1596 1.65705 95.2725 1.3533C95.4833 0.811639 95.9787 0.519394 96.5607 0.519394H96.6195C97.2183 0.539549 97.7289 0.877142 97.9086 1.44315C98.0076 1.76474 98.0579 2.09931 98.0581 2.43578C98.0698 4.67967 98.0463 6.92273 98.074 9.16663C98.079 9.85383 98.1593 10.5384 98.3133 11.2081C98.5653 12.2528 99.2715 12.7802 100.341 12.8449C100.459 12.8524 100.577 12.8558 100.696 12.8558C100.853 12.8558 101.011 12.8499 101.168 12.8365C102.064 12.7592 102.74 12.3209 102.991 11.4517C103.191 10.7691 103.3 10.0633 103.317 9.35222C103.359 7.07221 103.333 4.78969 103.339 2.508C103.334 2.24522 103.354 1.98259 103.399 1.72364C103.544 0.986313 104.113 0.518555 104.828 0.518555Z" fill="#F3F3F3"/>
<path d="M113.135 14.1579L113.062 14.0848C112.95 13.9728 112.845 13.8583 112.747 13.7413C112.388 13.3214 112.142 12.8554 112.176 12.2751C112.191 12.0007 112.287 11.7368 112.451 11.5166C112.616 11.2964 112.841 11.1296 113.1 11.0372L113.173 11.1103C112.914 11.2028 112.689 11.3698 112.524 11.5901C112.36 11.8105 112.264 12.0745 112.249 12.349C112.215 12.9284 112.462 13.3911 112.82 13.8144C112.92 13.9336 113.026 14.0479 113.135 14.1579Z" fill="#F3F3F3"/>
<path d="M113.172 11.1104L113.099 11.0373C113.179 11.0089 113.26 10.9875 113.343 10.9735L113.417 11.0474C113.333 11.0609 113.252 11.082 113.172 11.1104Z" fill="#F3F3F3"/>
<path d="M113.417 11.0474L113.344 10.9735C113.413 10.9624 113.483 10.9568 113.553 10.9567L113.627 11.0297C113.556 11.0297 113.486 11.0356 113.417 11.0474Z" fill="#F3F3F3"/>
<path d="M113.631 11.0297L113.557 10.9567H113.562C113.628 10.9564 113.693 10.9612 113.758 10.971L113.832 11.044C113.767 11.0347 113.702 11.0299 113.636 11.0297H113.631Z" fill="#F3F3F3"/>
<path d="M113.828 11.044L113.754 10.9709C113.825 10.9818 113.896 10.9983 113.964 11.0205L114.038 11.0936C113.969 11.0719 113.899 11.0553 113.828 11.044Z" fill="#F3F3F3"/>
<path d="M114.038 11.0936L113.964 11.0205C114.055 11.0502 114.143 11.089 114.226 11.1364L114.299 11.2095C114.216 11.1619 114.129 11.1231 114.038 11.0936Z" fill="#F3F3F3"/>
<path d="M114.303 11.2094L114.23 11.1364C114.254 11.1506 114.279 11.1657 114.304 11.1817C114.593 11.3715 114.834 11.6385 115.084 11.8821C115.369 12.1642 115.688 12.4096 116.034 12.6127L116.107 12.6866C115.761 12.4834 115.442 12.2377 115.158 11.9551C114.906 11.7116 114.666 11.4446 114.377 11.2556C114.352 11.2388 114.328 11.2237 114.303 11.2094Z" fill="#F3F3F3"/>
<path d="M116.102 12.6866L116.029 12.6127C116.239 12.7339 116.46 12.8329 116.69 12.9083L116.763 12.9813C116.533 12.9063 116.312 12.8075 116.102 12.6866Z" fill="#F3F3F3"/>
<path d="M116.763 12.9814L116.69 12.9083C116.854 12.9616 117.023 13.0012 117.194 13.0267L117.267 13.0998C117.096 13.0741 116.928 13.0345 116.763 12.9814Z" fill="#F3F3F3"/>
<path d="M117.266 13.1006L117.193 13.0276C117.349 13.0506 117.508 13.0621 117.666 13.062H117.678L117.752 13.1359H117.739C117.581 13.1357 117.422 13.1239 117.266 13.1006Z" fill="#F3F3F3"/>
<path d="M117.752 13.1351L117.678 13.0612C117.862 13.0609 118.046 13.0454 118.228 13.015L118.301 13.0889C118.119 13.1185 117.936 13.1339 117.752 13.1351Z" fill="#F3F3F3"/>
<path d="M118.301 13.0888L118.228 13.0149C118.268 13.0082 118.312 13.0015 118.351 12.9931C118.489 12.9669 118.626 12.9304 118.759 12.8839L118.832 12.957C118.699 13.0038 118.562 13.0406 118.424 13.067L118.301 13.0888Z" fill="#F3F3F3"/>
<path d="M118.832 12.957L118.759 12.884C119.186 12.7311 119.525 12.4641 119.666 11.9653C119.834 11.3774 119.75 10.8047 119.331 10.3856L119.404 10.4587C119.824 10.8786 119.908 11.4463 119.74 12.0383C119.599 12.5338 119.26 12.8042 118.833 12.957" fill="#F3F3F3"/>
<path d="M116.028 5.31415L115.954 5.24109C116.012 5.29871 116.076 5.34944 116.146 5.39225C116.26 5.46447 116.375 5.53333 116.492 5.60052L116.566 5.67358C116.448 5.60639 116.333 5.53753 116.219 5.46615C116.15 5.42277 116.086 5.37179 116.028 5.31415Z" fill="#F3F3F3"/>
<path d="M116.57 5.67365L116.496 5.60059C116.981 5.87855 117.494 6.13049 117.993 6.38242C118.749 6.76704 119.54 7.09036 120.272 7.51109L120.345 7.58415C119.613 7.16426 118.822 6.8401 118.067 6.45632C117.563 6.20439 117.054 5.95245 116.566 5.67365" fill="#F3F3F3"/>
<path d="M120.349 7.58405L120.276 7.51099C120.344 7.54962 120.41 7.58909 120.477 7.6294C120.812 7.82993 121.122 8.06985 121.401 8.34405L121.474 8.41711C121.197 8.14319 120.889 7.90328 120.555 7.70246C120.489 7.66215 120.422 7.62268 120.353 7.58405" fill="#F3F3F3"/>
<path d="M117.569 0.296438L117.496 0.222537C117.794 0.222226 118.093 0.244121 118.388 0.28804L118.461 0.361102C118.166 0.317432 117.868 0.295818 117.569 0.296438Z" fill="#F3F3F3"/>
<path d="M118.461 0.361147L118.388 0.288086C118.685 0.332087 118.979 0.400623 119.265 0.492993L119.338 0.566894C119.052 0.474644 118.758 0.405835 118.461 0.361147Z" fill="#F3F3F3"/>
<path d="M119.342 0.566821L119.269 0.49292C119.629 0.609648 119.976 0.7636 120.304 0.952281L120.377 1.02618C120.049 0.837015 119.702 0.683039 119.342 0.566821Z" fill="#F3F3F3"/>
<path d="M120.373 1.02617L120.3 0.952271C120.777 1.22863 121.215 1.56755 121.603 1.96001L121.676 2.03307C121.289 1.64032 120.851 1.30137 120.373 1.02533" fill="#F3F3F3"/>
<path d="M113.812 7.24401L113.739 7.17095C112.853 6.28414 112.529 5.14371 112.732 3.79418C112.964 2.27586 113.922 1.07917 115.368 0.560181L115.442 0.634081C113.995 1.15307 113.037 2.34892 112.805 3.86808C112.598 5.21677 112.922 6.35804 113.812 7.24401Z" fill="#F3F3F3"/>
<path d="M115.445 0.634088L115.372 0.560187C115.566 0.491177 115.765 0.435069 115.966 0.392231C116.101 0.363678 116.234 0.338485 116.368 0.31665L116.441 0.389711C116.308 0.411546 116.174 0.436739 116.039 0.465292C115.838 0.508243 115.64 0.564349 115.445 0.633248" fill="#F3F3F3"/>
<path d="M116.441 0.389651L116.368 0.31659C116.733 0.256702 117.102 0.225256 117.472 0.222534L117.545 0.296435C117.175 0.298499 116.806 0.329667 116.441 0.389651Z" fill="#F3F3F3"/>
<path d="M117.545 0.29685L117.472 0.222534H117.496L117.569 0.29685H117.545Z" fill="#F3F3F3"/>
<path d="M117.569 0.296875C119.099 0.296875 120.489 0.843573 121.676 2.0369C121.989 2.35182 122.22 2.79271 122.375 3.2126C122.569 3.74082 122.44 4.26065 121.978 4.64023C121.733 4.82906 121.432 4.92914 121.122 4.92407C120.862 4.92755 120.606 4.85551 120.385 4.71665C120.057 4.48771 119.751 4.22878 119.471 3.94321C119.215 3.68899 118.91 3.48873 118.575 3.35429C118.241 3.21985 117.882 3.15396 117.521 3.16053C117.251 3.16176 116.982 3.18989 116.717 3.24451C116.206 3.34864 115.877 3.68959 115.77 4.20354C115.662 4.71749 115.77 5.18945 116.22 5.46909C116.808 5.83944 117.443 6.14092 118.067 6.4592C118.892 6.87909 119.759 7.22592 120.547 7.70543C121.987 8.58552 122.74 9.89978 122.747 11.9564C122.713 13.447 121.877 14.7705 120.195 15.5162C119.423 15.8531 118.59 16.0247 117.747 16.0201C115.89 16.0201 114.015 15.229 112.82 13.8182C112.463 13.3983 112.216 12.9322 112.25 12.3528C112.269 11.9978 112.422 11.6632 112.678 11.4174C112.935 11.1716 113.276 11.0331 113.632 11.0301C113.895 11.0308 114.153 11.1094 114.372 11.256C114.661 11.445 114.902 11.712 115.153 11.9556C115.902 12.6845 116.744 13.1313 117.739 13.1313C117.969 13.1304 118.198 13.1076 118.423 13.0632C119.036 12.9432 119.555 12.6795 119.739 12.0345C119.923 11.3896 119.799 10.7555 119.259 10.3289C118.782 9.96621 118.271 9.65224 117.731 9.39172C116.782 8.91388 115.772 8.54689 114.852 8.02035C113.192 7.0714 112.535 5.65049 112.809 3.86427C113.071 2.14608 114.261 0.841054 116.039 0.461472C116.542 0.352945 117.055 0.297774 117.569 0.296875Z" fill="#F3F3F3"/>
<path d="M84.0556 10.2672L83.9825 10.1941C84.0579 10.1953 84.1331 10.2015 84.2076 10.2126L84.2807 10.2856C84.2061 10.2746 84.1309 10.2684 84.0556 10.2672Z" fill="#F3F3F3"/>
<path d="M84.2806 10.2856L84.2075 10.2125C84.2807 10.2229 84.3529 10.2395 84.4233 10.2621L84.4964 10.3351C84.426 10.3125 84.3538 10.2959 84.2806 10.2856Z" fill="#F3F3F3"/>
<path d="M84.4964 10.3351L84.4233 10.2621C84.497 10.2856 84.5679 10.3168 84.635 10.3553L84.708 10.4284C84.641 10.3899 84.57 10.3586 84.4964 10.3351Z" fill="#F3F3F3"/>
<path d="M84.7081 10.4284L84.635 10.3553C84.7124 10.3998 84.7836 10.4543 84.8466 10.5174L84.9197 10.5905C84.8566 10.5274 84.7855 10.4729 84.7081 10.4284Z" fill="#F3F3F3"/>
<path d="M83.7351 14.459L83.662 14.386C82.9931 13.7223 82.5772 12.8457 82.4863 11.9078C82.4023 11.1369 82.7861 10.5154 83.4202 10.2878L83.4932 10.3609C82.8592 10.5885 82.4746 11.2099 82.5594 11.9808C82.6504 12.9187 83.0662 13.7953 83.7351 14.459Z" fill="#F3F3F3"/>
<path d="M83.4991 10.3604L83.426 10.2873C83.5166 10.255 83.6099 10.2311 83.7048 10.2159L83.7779 10.289C83.683 10.3045 83.5897 10.3284 83.4991 10.3604Z" fill="#F3F3F3"/>
<path d="M83.7779 10.289L83.7048 10.2159C83.7945 10.2013 83.8852 10.194 83.9761 10.1941L84.0491 10.2672C83.9583 10.2671 83.8676 10.2744 83.7779 10.289Z" fill="#F3F3F3"/>
<path d="M84.0494 10.2676L83.976 10.1941H83.9827L84.0562 10.2676H84.0494Z" fill="#F3F3F3"/>
<path d="M90.7614 0.518131L90.6875 0.44507C90.7679 0.444941 90.8482 0.450836 90.9277 0.462706L91.0007 0.535767C90.9215 0.523926 90.8415 0.518031 90.7614 0.518131Z" fill="#F3F3F3"/>
<path d="M91.001 0.53583L90.928 0.462769C91.0083 0.474402 91.0875 0.492659 91.1648 0.517354L91.2379 0.591255C91.1607 0.565887 91.0814 0.54734 91.001 0.53583Z" fill="#F3F3F3"/>
<path d="M91.2377 0.587817L91.1647 0.513916C91.2552 0.543563 91.3424 0.582395 91.425 0.629806L91.4981 0.702867C91.4156 0.655408 91.3283 0.616842 91.2377 0.587817Z" fill="#F3F3F3"/>
<path d="M91.498 0.70624L91.4249 0.633179C91.5244 0.689333 91.6156 0.758841 91.6962 0.839765L91.7701 0.912826C91.6889 0.832028 91.5974 0.762286 91.498 0.7054" fill="#F3F3F3"/>
<path d="M85.9352 12.4329L85.8613 12.3599C85.9594 12.4581 86.0701 12.5428 86.1905 12.6118L86.2636 12.6849C86.1434 12.6159 86.033 12.5311 85.9352 12.4329Z" fill="#F3F3F3"/>
<path d="M86.2635 12.6857L86.1904 12.6127C86.2905 12.6701 86.3963 12.7168 86.5062 12.7521L86.5792 12.8251C86.4693 12.7902 86.3634 12.7435 86.2635 12.6857Z" fill="#F3F3F3"/>
<path d="M86.5792 12.8251L86.5061 12.7521C86.6092 12.7849 86.7148 12.8093 86.8219 12.8251L86.8949 12.8982C86.7879 12.8823 86.6823 12.8578 86.5792 12.8251Z" fill="#F3F3F3"/>
<path d="M86.8952 12.8981L86.8221 12.8251C86.9495 12.8437 87.0781 12.8527 87.2068 12.8519H87.2177L87.2916 12.925H87.2798C87.1511 12.9258 87.0226 12.9168 86.8952 12.8981Z" fill="#F3F3F3"/>
<path d="M87.2913 12.9251L87.2174 12.8521C87.3296 12.8519 87.4417 12.8461 87.5533 12.8344C87.5995 12.8302 87.644 12.8243 87.6885 12.8176L87.7616 12.8907C87.7171 12.8974 87.6726 12.9033 87.6264 12.9083C87.5113 12.9192 87.4005 12.9251 87.2905 12.9251" fill="#F3F3F3"/>
<path d="M87.7585 12.8907L87.6854 12.8176C87.7971 12.7994 87.907 12.7713 88.0138 12.7336L88.0868 12.8067C87.9802 12.8448 87.8703 12.8729 87.7585 12.8907Z" fill="#F3F3F3"/>
<path d="M88.0869 12.8067L88.0138 12.7336C88.5555 12.5396 88.9216 12.0937 89.0619 11.3942C89.1526 10.8893 89.1956 10.377 89.1903 9.86409C89.2029 7.39514 89.1903 4.92618 89.2012 2.45722C89.1956 2.14473 89.2252 1.8326 89.2894 1.52674C89.4062 1.02791 89.7093 0.686957 90.1342 0.537476L90.2073 0.610537C89.7807 0.763377 89.4792 1.10097 89.3625 1.5998C89.3 1.90616 89.2719 2.21852 89.2785 2.53112C89.271 5.00008 89.2785 7.4682 89.2668 9.93716C89.2725 10.4501 89.2295 10.9624 89.1383 11.4672C88.9989 12.1676 88.6344 12.6127 88.0902 12.8067" fill="#F3F3F3"/>
<path d="M90.2072 0.610536L90.1342 0.537475C90.223 0.505694 90.3147 0.482357 90.4079 0.467773L90.481 0.540834C90.3877 0.555418 90.2961 0.578755 90.2072 0.610536Z" fill="#F3F3F3"/>
<path d="M90.481 0.540755L90.408 0.467694C90.4613 0.458449 90.5151 0.45228 90.5692 0.449219C90.607 0.449219 90.6448 0.449219 90.6817 0.449219L90.7548 0.52228C90.7178 0.52228 90.6801 0.52228 90.6423 0.52228C90.5877 0.52228 90.5339 0.532357 90.481 0.540755Z" fill="#F3F3F3"/>
<path d="M90.7554 0.51854L90.6819 0.445068H90.6878L90.7621 0.51854H90.7554Z" fill="#F3F3F3"/>
<path d="M90.7615 0.518188C91.3695 0.518188 91.8842 0.845704 92.0908 1.43019C92.1924 1.7388 92.2435 2.06181 92.242 2.3867C92.2571 3.82777 92.2479 5.26884 92.2479 6.7099C92.2168 8.11318 92.2395 9.51729 92.205 10.9197C92.1846 11.458 92.1041 11.9924 91.9649 12.5128C91.5189 14.2394 90.4247 15.3227 88.6578 15.6603C88.1613 15.7592 87.6566 15.8113 87.1504 15.8157C86.0007 15.8157 84.914 15.5024 83.9517 14.6568C83.1639 13.9762 82.6685 13.0183 82.5685 11.9821C82.461 11.0054 83.1085 10.2689 84.0591 10.2689C84.5991 10.2798 84.9619 10.5024 85.1702 10.9575C85.2936 11.2313 85.391 11.5168 85.5128 11.7914C85.8546 12.5632 86.4206 12.9268 87.2831 12.9268C87.3931 12.9268 87.5073 12.9209 87.6265 12.91C88.4227 12.8319 88.9618 12.3532 89.1381 11.4689C89.2294 10.9641 89.2724 10.4518 89.2666 9.93886C89.2792 7.4699 89.2708 5.00179 89.2784 2.53283C89.2717 2.22023 89.2999 1.90787 89.3624 1.60151C89.5152 0.947317 89.988 0.569415 90.6422 0.524067C90.6825 0.519868 90.722 0.518188 90.7615 0.518188Z" fill="#F3F3F3"/>
<path d="M82.6482 0.512255L82.5743 0.438354C82.6449 0.438687 82.7153 0.444019 82.7851 0.45431L82.859 0.528211C82.7893 0.517565 82.7188 0.512231 82.6482 0.512255Z" fill="#F3F3F3"/>
<path d="M82.8588 0.528247L82.7849 0.454346C82.8704 0.467032 82.9547 0.486979 83.0368 0.51397L83.1099 0.587031C83.0278 0.560273 82.9435 0.540606 82.858 0.528247" fill="#F3F3F3"/>
<path d="M83.1082 0.587832L83.0352 0.514771C83.1216 0.542862 83.2058 0.57739 83.2871 0.618064C83.3165 0.63318 83.345 0.648296 83.3711 0.664252L83.4441 0.737313C83.4164 0.721357 83.3879 0.706241 83.3602 0.691125C83.2789 0.650307 83.1947 0.615775 83.1082 0.587832Z" fill="#F3F3F3"/>
<path d="M83.4467 0.736513L83.3737 0.663452C83.4844 0.726543 83.5863 0.803905 83.6768 0.893552L83.7499 0.966613C83.6593 0.876966 83.5574 0.799604 83.4467 0.736513Z" fill="#F3F3F3"/>
<path d="M78.1164 6.69596L78.0425 6.6229C78.2902 6.21561 78.5111 5.85702 78.7286 5.49507C79.5292 4.16262 80.3303 2.83017 81.132 1.49771C81.216 1.35747 81.3 1.21974 81.3982 1.0879C81.5788 0.828029 81.8338 0.628937 82.1297 0.516846L82.2028 0.589907C81.9071 0.702052 81.6524 0.90115 81.4721 1.16096C81.3756 1.2928 81.2891 1.43053 81.2051 1.57077C80.4039 2.90155 79.6039 4.234 78.805 5.56813C78.5875 5.93008 78.3666 6.28951 78.1197 6.69596" fill="#F3F3F3"/>
<path d="M82.1995 0.587871L82.1265 0.51481C82.2022 0.487313 82.2804 0.467068 82.3599 0.454346L82.4338 0.527407C82.354 0.540022 82.2755 0.560269 82.1995 0.587871Z" fill="#F3F3F3"/>
<path d="M82.4336 0.529051L82.3597 0.45599C82.4292 0.444666 82.4994 0.43877 82.5697 0.438354L82.6436 0.512255C82.5733 0.512321 82.5031 0.517937 82.4336 0.529051Z" fill="#F3F3F3"/>
<path d="M82.6441 0.51267L82.5698 0.438354H82.5749L82.6492 0.51267H82.6441Z" fill="#F3F3F3"/>
<path d="M77.1109 15.4609L77.0379 15.3879C76.8736 15.2227 76.7502 15.0214 76.6776 14.8C76.5931 14.525 76.5509 14.2387 76.5525 13.951C76.5399 12.6351 76.5525 11.3183 76.539 10.004C76.5344 9.77002 76.4693 9.54119 76.3501 9.33975C75.0753 7.26465 73.7778 5.20719 72.5056 3.13628C72.2938 2.79809 72.1403 2.42681 72.0512 2.03785C71.9194 1.41305 72.2469 0.870551 72.8247 0.598462C72.8768 0.574108 72.9297 0.552274 72.9817 0.532959L73.0556 0.60602C73.0027 0.625335 72.9498 0.647169 72.8978 0.671523C72.32 0.943612 71.9925 1.48611 72.1243 2.11091C72.2135 2.49996 72.3673 2.87127 72.5795 3.20934C73.8509 5.28109 75.1492 7.33771 76.4232 9.40778C76.5424 9.60886 76.6075 9.83744 76.6121 10.0712C76.6297 11.3871 76.6121 12.7048 76.6255 14.0182C76.6244 14.3059 76.6665 14.5921 76.7507 14.8672C76.8236 15.0884 76.9469 15.2897 77.1109 15.455" fill="#F3F3F3"/>
<path d="M73.0555 0.605458L72.9858 0.532397C73.0789 0.499251 73.1747 0.474518 73.2722 0.458496L73.3453 0.531557C73.2481 0.54788 73.1526 0.572606 73.0597 0.605458" fill="#F3F3F3"/>
<path d="M73.3409 0.531585L73.2678 0.458524C73.345 0.445873 73.4231 0.439414 73.5013 0.439209L73.5743 0.51227C73.4961 0.512511 73.4181 0.51897 73.3409 0.531585Z" fill="#F3F3F3"/>
<path d="M73.5738 0.51227L73.5007 0.439209H73.5058C73.5757 0.439167 73.6456 0.444219 73.7149 0.454325L73.7879 0.527386C73.7187 0.51728 73.6488 0.512228 73.5788 0.51227H73.5738Z" fill="#F3F3F3"/>
<path d="M73.7889 0.527285L73.7158 0.454224C73.7885 0.465047 73.8601 0.481901 73.93 0.504611L74.0039 0.577672C73.9337 0.555053 73.8618 0.538202 73.7889 0.527285Z" fill="#F3F3F3"/>
<path d="M74.0036 0.577807L73.9297 0.503906C74.0172 0.532288 74.1016 0.569426 74.1816 0.614757L74.2547 0.688658C74.1748 0.642817 74.0904 0.605386 74.0027 0.576967" fill="#F3F3F3"/>
<path d="M74.2537 0.689379L74.1807 0.615479C74.2827 0.674479 74.3765 0.746772 74.4595 0.830463L74.5325 0.903524C74.4497 0.819839 74.3559 0.747799 74.2537 0.689379Z" fill="#F3F3F3"/>
<path d="M82.6489 0.512695C82.8971 0.516034 83.1412 0.57698 83.3618 0.690729C84.006 1.01237 84.273 1.65732 84.0404 2.41144C83.953 2.6721 83.8331 2.92068 83.6835 3.15129C82.402 5.21883 81.1062 7.27714 79.8373 9.35056C79.6838 9.61619 79.6 9.91636 79.5937 10.2231C79.5669 11.4635 79.5853 12.7055 79.5786 13.9467C79.5859 14.2093 79.5633 14.4718 79.5114 14.7294C79.3494 15.423 78.8354 15.837 78.1485 15.8639H78.0905C77.7901 15.8632 77.4977 15.766 77.2566 15.5867C77.0155 15.4074 76.8383 15.1555 76.7511 14.8679C76.667 14.5928 76.6248 14.3066 76.626 14.0189C76.6134 12.7038 76.626 11.3862 76.6125 10.0719C76.608 9.83817 76.5429 9.60959 76.4236 9.40851C75.1496 7.33844 73.8513 5.28182 72.5799 3.21008C72.3677 2.872 72.2139 2.50069 72.1247 2.11164C71.9929 1.486 72.3204 0.943504 72.9024 0.672254C73.1152 0.569859 73.3481 0.515666 73.5843 0.513535C73.7746 0.511908 73.9631 0.551178 74.1369 0.62869C74.3108 0.706202 74.466 0.820147 74.592 0.962819C74.7465 1.14299 74.8837 1.33728 75.0018 1.54311C75.967 3.14093 76.9294 4.741 77.889 6.3433C77.9511 6.44576 78.02 6.54485 78.1174 6.69601C78.3643 6.28956 78.5852 5.93013 78.8027 5.56818C79.6038 4.23629 80.4039 2.90383 81.2028 1.57082C81.2867 1.43058 81.3707 1.29285 81.4698 1.16101C81.7805 0.734398 82.1979 0.512695 82.6489 0.512695Z" fill="#F3F3F3"/>
<path d="M109.911 0.483726L109.838 0.410665C109.936 0.410211 110.034 0.41723 110.131 0.43166L110.204 0.504721C110.107 0.490686 110.009 0.48367 109.911 0.483726Z" fill="#F3F3F3"/>
<path d="M110.204 0.503847L110.131 0.430786C110.214 0.442789 110.297 0.461893 110.377 0.487891L110.451 0.560952C110.37 0.535442 110.288 0.516348 110.204 0.503847Z" fill="#F3F3F3"/>
<path d="M110.451 0.561831L110.377 0.48877C110.462 0.516126 110.544 0.552439 110.622 0.597101L110.696 0.670162C110.618 0.625804 110.536 0.589505 110.451 0.561831Z" fill="#F3F3F3"/>
<path d="M110.696 0.671816L110.622 0.598755C110.709 0.648438 110.789 0.709435 110.86 0.780148L110.934 0.854049C110.863 0.783202 110.783 0.721938 110.696 0.671816Z" fill="#F3F3F3"/>
<path d="M108.845 5.62702L108.771 5.55396C108.646 5.42385 108.55 5.26871 108.489 5.09879C108.397 4.85442 108.299 4.59492 108.29 4.34299C108.263 3.51748 108.236 2.68862 108.29 1.86647C108.334 1.16525 108.677 0.699175 109.209 0.508545L109.283 0.582446C108.75 0.772236 108.408 1.23832 108.364 1.93953C108.312 2.76168 108.34 3.59055 108.364 4.41605C108.373 4.66799 108.472 4.93 108.563 5.17186C108.623 5.34197 108.719 5.49719 108.845 5.62702Z" fill="#F3F3F3"/>
<path d="M109.281 0.58289L109.208 0.508989C109.3 0.476268 109.396 0.452094 109.493 0.436768L109.566 0.509829C109.469 0.525031 109.374 0.549497 109.281 0.58289Z" fill="#F3F3F3"/>
<path d="M109.566 0.509739L109.493 0.436678C109.542 0.428172 109.592 0.422285 109.642 0.419042C109.706 0.414004 109.768 0.410645 109.83 0.410645L109.903 0.483706C109.842 0.483706 109.779 0.483706 109.715 0.492103C109.664 0.496582 109.615 0.502461 109.566 0.509739Z" fill="#F3F3F3"/>
<path d="M109.903 0.484116L109.83 0.410645H109.838L109.912 0.484116H109.903Z" fill="#F3F3F3"/>
<path d="M109.911 0.484131C110.861 0.484131 111.392 1.07702 111.382 2.28462C111.275 3.20838 111.046 4.27071 110.571 5.26585C110.377 5.67566 110.034 5.915 109.58 5.915C109.558 5.915 109.536 5.915 109.513 5.915C109.037 5.89233 108.727 5.60848 108.564 5.17599C108.473 4.93246 108.374 4.67212 108.365 4.42019C108.338 3.59468 108.311 2.76582 108.365 1.94367C108.42 1.06694 108.943 0.558032 109.717 0.495888C109.782 0.48749 109.848 0.484131 109.911 0.484131Z" fill="#F3F3F3"/>
</svg>
