<svg width="165" height="36" viewBox="0 0 165 36" fill="none" xmlns="http://www.w3.org/2000/svg">
<rect width="35.9338" height="36" rx="3.20074" fill="#F3F3F3"/>
<path d="M23.8515 14.0841C24.9788 14.5484 25.9513 15.1964 26.7604 16.0806C27.8755 17.2821 28.5861 18.804 28.7919 20.4317C28.9906 21.9097 28.8875 23.3511 28.2049 24.7007C27.1589 26.7673 25.6194 28.3018 23.3652 28.9982C21.8063 29.4802 20.2337 29.9109 18.6634 30.3627C17.6484 30.6559 16.633 30.9491 15.6173 31.2423C14.2451 31.637 12.9942 30.9685 12.5939 29.5966C11.6294 26.2859 10.6727 22.9729 9.72372 19.6576C8.78274 16.3937 7.84196 13.1305 6.90136 9.86813C6.51419 8.52879 7.21053 7.24763 8.5474 6.8586C11.0906 6.11934 13.6338 5.38122 16.177 4.64424C17.8093 4.17022 19.3859 4.3847 20.8976 5.09259C23.064 6.10793 24.1703 7.90703 24.5171 10.2167C24.7124 11.5183 24.4732 12.7647 23.9061 13.9495C23.8856 13.9843 23.8737 14.0248 23.8515 14.0841ZM21.4647 28.0422C21.9122 27.9156 22.3603 27.7918 22.8067 27.6617C25.8625 26.7708 27.8547 23.6266 27.3514 20.491C26.9158 17.7661 24.9378 15.6864 22.2367 15.116C21.9521 15.0561 21.6634 15.0207 21.3542 14.9705C21.4186 14.9021 21.463 14.8513 21.5108 14.8051C22.5431 13.8109 23.0919 12.593 23.1341 11.1635C23.1734 9.84702 22.7298 8.68166 21.9207 7.65491C20.8686 6.31899 19.4856 5.67441 17.7923 5.80903C17.1688 5.85866 16.5499 6.04633 15.9424 6.21859C13.6649 6.86507 11.3905 7.52371 9.11905 8.19452C8.44378 8.39246 8.12892 9.08837 8.38798 9.75519C8.40346 9.87031 8.42493 9.98455 8.45232 10.0974C10.2637 16.388 12.0769 22.6776 13.8921 28.9663C14.0942 29.6662 14.7108 30.013 15.4106 29.8156C16.0202 29.6434 16.6294 29.4685 17.2383 29.2909C18.6473 28.8764 20.0561 28.4601 21.4647 28.0422Z" fill="#803588"/>
<path d="M21.4651 28.0425C20.055 28.4608 18.6447 28.877 17.2341 29.2911C16.6268 29.4695 16.0176 29.6444 15.4065 29.8159C14.7067 30.0133 14.0901 29.6665 13.888 28.9666C12.0751 22.6779 10.2628 16.389 8.45106 10.1C8.42367 9.9871 8.40219 9.87286 8.38672 9.75773C8.46244 9.70069 8.53077 9.61969 8.61447 9.59288C9.30568 9.37916 9.99879 9.17153 10.6938 8.96998C11.8434 8.638 12.9923 8.30544 14.1459 7.98829C14.6401 7.85253 15.1394 7.69852 15.645 7.65118C16.7141 7.54444 17.7857 7.82803 18.6627 8.44976C19.4723 9.00991 20.0354 9.76172 20.4425 10.6596C20.8548 11.5682 20.9652 12.5106 20.8383 13.4763C20.701 14.515 20.2302 15.4157 19.5287 16.1909C19.4262 16.305 19.2913 16.3883 19.1381 16.5126C19.6135 16.5742 20.0047 16.5913 20.3788 16.6809C21.1668 16.8697 21.9035 17.1817 22.5634 17.6717C23.208 18.1503 23.7591 18.7104 24.173 19.3984C24.6342 20.1599 24.9451 20.979 25.0186 21.8688C25.1324 23.2264 24.8876 24.5122 24.156 25.6815C23.6851 26.435 23.089 27.0665 22.334 27.5371C22.0482 27.7134 21.7555 27.8748 21.4651 28.0425Z" fill="#803588"/>
<path d="M21.4655 28.0448C21.7542 27.8771 22.0469 27.7157 22.3304 27.5394C23.0871 27.0688 23.6832 26.4374 24.1524 25.6838C24.884 24.5145 25.1272 23.231 25.015 21.8712C24.9415 20.9813 24.6307 20.1599 24.1695 19.4007C23.7533 18.7128 23.2044 18.1526 22.5599 17.674C21.9 17.184 21.1632 16.872 20.3752 16.6832C20.0011 16.5937 19.61 16.5765 19.1345 16.5149C19.2877 16.3906 19.4227 16.3062 19.5251 16.1932C20.2277 15.4186 20.6986 14.5173 20.8347 13.4786C20.9617 12.5129 20.8512 11.5706 20.439 10.6619C20.0319 9.76404 19.471 9.01223 18.6591 8.45208C17.7821 7.83034 16.7105 7.54676 15.6415 7.65349C15.1359 7.70083 14.6365 7.85485 14.1423 7.99061C12.9888 8.30776 11.8398 8.64031 10.6902 8.9723C9.99522 9.17346 9.30211 9.3811 8.6109 9.59519C8.52549 9.622 8.45717 9.70357 8.38315 9.76004C8.12409 9.09323 8.44009 8.39731 9.11422 8.19938C11.389 7.53161 13.6652 6.87183 15.9427 6.22003C16.5502 6.0489 17.1691 5.8601 17.7925 5.81047C19.4858 5.67585 20.8671 6.32042 21.921 7.65634C22.7301 8.68309 23.1737 9.84846 23.1344 11.165C23.0922 12.5945 22.5434 13.8123 21.5111 14.8065C21.4633 14.8527 21.4189 14.9035 21.3545 14.972C21.6637 15.0222 21.9529 15.0575 22.237 15.1174C24.937 15.6878 26.9161 17.7676 27.3534 20.4925C27.8567 23.6298 25.8645 26.7722 22.8087 27.6632C22.3629 27.7944 21.9148 27.9182 21.4655 28.0448Z" fill="#4C215C"/>
<path d="M60.6489 16.6855L60.5059 16.5422C61.2189 16.9489 61.8759 17.4471 62.4601 18.0242L62.6031 18.1675C62.0189 17.5904 61.3619 17.0922 60.6489 16.6855Z" fill="#F3F3F3"/>
<path d="M59.7699 16.2108L59.627 16.0659C59.9557 16.2421 60.2187 16.3837 60.48 16.5352L60.623 16.6785C60.3617 16.527 60.0921 16.3854 59.7699 16.2108Z" fill="#F3F3F3"/>
<path d="M60.6245 16.6787L60.4805 16.5347L60.5053 16.5479L60.6494 16.692L60.6245 16.6787Z" fill="#F3F3F3"/>
<path d="M52.4142 18.6052L52.2712 18.4619C51.7239 17.9136 51.4494 17.1446 51.4856 16.2636C51.5316 14.9858 52.1233 14.1592 53.3643 13.7146L53.5089 13.8579C52.2663 14.3041 51.6746 15.1291 51.6302 16.4069C51.5974 17.2928 51.8669 18.0536 52.4142 18.6052Z" fill="#F3F3F3"/>
<path d="M53.5079 13.8578L53.3633 13.7146L53.4241 13.6932C53.9303 13.5186 54.4662 13.4248 54.9872 13.2881C55.1368 13.2486 55.2831 13.2025 55.4244 13.1531L55.569 13.2963C55.4261 13.3474 55.2798 13.3918 55.1302 13.4314C54.6092 13.5697 54.075 13.6619 53.5671 13.8381L53.5079 13.8578Z" fill="#F3F3F3"/>
<path d="M55.5704 13.2895L55.4258 13.1462C56.1473 12.8877 56.7489 12.4694 57.0941 11.7087C57.3905 11.0776 57.4885 10.3713 57.3752 9.68318C57.2619 8.99508 56.9426 8.35769 56.4596 7.85547L56.6043 7.99873C57.0886 8.5022 57.4086 9.14143 57.5216 9.83146C57.6347 10.5215 57.5354 11.2296 57.2371 11.8618C56.8919 12.6226 56.2903 13.0408 55.5704 13.2993" fill="#F3F3F3"/>
<path d="M43.657 31.4252L43.514 31.2803C42.9946 30.76 42.7217 29.9926 42.7217 29.0112C42.7152 20.8778 42.7152 12.7455 42.7217 4.61422C42.7217 3.16351 43.3134 2.14422 44.4245 1.74902L44.5675 1.89228C43.4581 2.29242 42.868 3.30677 42.8647 4.75913C42.8571 12.8904 42.8571 21.0221 42.8647 29.1545C42.8647 30.1425 43.1376 30.9032 43.657 31.4252Z" fill="#F3F3F3"/>
<path d="M60.6504 16.6881C63.609 18.4072 64.9896 21.0024 64.7825 24.4077C64.5705 27.8772 62.7378 30.2204 59.4933 31.294C57.8641 31.8242 56.1715 32.1343 54.4605 32.2162C53.3625 32.2689 52.2629 32.287 51.1617 32.287C49.3931 32.287 47.623 32.2392 45.8544 32.2145C43.9231 32.1882 42.8679 31.0898 42.8663 29.1517C42.8597 21.0183 42.8597 12.8865 42.8663 4.75638C42.8663 2.8693 43.8656 1.71993 45.7048 1.70182C47.1841 1.687 48.6502 1.66724 50.1229 1.66724C52.0098 1.66724 53.9033 1.70017 55.777 1.8319C61.0186 2.1777 64.5179 7.36305 62.963 12.2191C62.4946 13.6797 61.5774 14.7977 60.394 15.7281L59.7661 16.2221C60.1047 16.3868 60.3759 16.5333 60.6504 16.6881ZM56.4148 26.3903C58.0584 25.9918 58.8802 24.8852 58.8884 23.3373C58.8999 21.526 58.1915 20.5265 56.4953 19.9798C56.1025 19.853 55.6899 19.7805 55.2856 19.6867C54.6659 19.5451 54.0183 19.4792 53.4299 19.2553C52.2103 18.7876 51.5841 17.737 51.6318 16.4115C51.6778 15.1139 52.2892 14.2823 53.5696 13.8427C54.0775 13.6665 54.6117 13.5743 55.1327 13.4359C56.0449 13.1939 56.8257 12.7773 57.2382 11.8634C58.1965 9.75071 56.9506 7.30212 54.6643 7.10782C53.9131 7.0436 53.1571 7.02384 52.3961 7.02384C51.1896 7.02384 49.9684 7.07324 48.7258 7.07324C48.6952 7.21725 48.6733 7.36296 48.6601 7.5096C48.6601 13.7263 48.6541 19.9441 48.642 26.163C48.642 26.6685 48.8672 26.7673 49.2863 26.7673H49.8353C50.164 26.7673 50.4927 26.7673 50.8215 26.7673C51.1502 26.7673 51.451 26.7673 51.7666 26.7673C52.2481 26.7673 52.7297 26.7673 53.2113 26.7394C54.2846 26.6916 55.3776 26.6323 56.4131 26.382" fill="#F3F3F3"/>
<path d="M124.063 26.0079L123.918 25.863C124.469 25.6775 124.965 25.3572 125.362 24.931C125.758 24.5049 126.042 23.9865 126.188 23.4226C126.578 22.0841 126.793 20.7001 126.826 19.306C126.906 14.8336 126.857 10.3596 126.868 5.88563C126.859 5.37037 126.899 4.8554 126.987 4.34765C127.199 3.2625 127.876 2.47539 128.795 2.14771L128.938 2.29261C128.025 2.62194 127.348 3.40576 127.13 4.49091C127.042 4.99866 127.002 5.51363 127.011 6.02889C127 10.5029 127.051 14.9785 126.969 19.4492C126.937 20.8435 126.722 22.2275 126.331 23.5659C126.185 24.1296 125.901 24.648 125.505 25.0743C125.109 25.5007 124.613 25.8215 124.063 26.0079Z" fill="#F3F3F3"/>
<path d="M114.039 29.2346L113.895 29.0913C112.415 27.6093 111.516 25.6119 111.071 23.2193C110.863 21.985 110.754 20.7363 110.742 19.4846C110.69 17.3736 110.729 15.2593 110.729 13.145C110.729 10.5877 110.709 8.04033 110.747 5.47647C110.75 4.84109 110.864 4.21118 111.086 3.61574C111.213 3.2765 111.413 2.96949 111.672 2.7165C111.931 2.46351 112.243 2.27073 112.585 2.15186L112.728 2.29512C112.386 2.4142 112.075 2.60707 111.816 2.86005C111.558 3.11303 111.358 3.41993 111.23 3.759C111.009 4.3546 110.894 4.98435 110.89 5.61973C110.852 8.17536 110.872 10.7326 110.874 13.2883C110.874 15.4026 110.834 17.5169 110.887 19.6279C110.897 20.8796 111.007 22.1284 111.216 23.3625C111.661 25.7568 112.563 27.7542 114.041 29.2346" fill="#F3F3F3"/>
<path d="M129.928 2.12817H130.065C131.524 2.19075 132.591 3.21827 132.768 4.74802C132.812 5.08935 132.836 5.43302 132.839 5.77718C132.819 10.839 132.87 15.9042 132.727 20.9627C132.653 22.63 132.321 24.2755 131.741 25.8401C130.426 29.4941 127.632 31.4042 123.852 31.9328C123.167 32.029 122.476 32.0779 121.784 32.0794C120.757 32.0814 119.733 31.9653 118.732 31.7336C114.294 30.6978 112.012 27.6712 111.212 23.3685C111.004 22.1343 110.894 20.8855 110.883 19.6339C110.831 17.5228 110.868 15.4085 110.87 13.2942C110.87 10.7386 110.849 8.18131 110.887 5.62569C110.891 4.99031 111.006 4.36056 111.227 3.76496C111.639 2.70286 112.609 2.12982 113.748 2.12982H113.863C115.035 2.16934 116.034 2.8313 116.386 3.94115C116.58 4.57172 116.679 5.22775 116.679 5.88751C116.702 10.2874 116.656 14.6856 116.71 19.0855C116.72 20.433 116.877 21.7754 117.178 23.0886C117.672 25.137 119.054 26.1711 121.148 26.2979C121.378 26.3127 121.61 26.3193 121.841 26.3193C122.149 26.3193 122.458 26.3078 122.765 26.2815C124.519 26.13 125.842 25.2704 126.333 23.5661C126.725 22.2277 126.939 20.8437 126.971 19.4494C127.053 14.9787 127.002 10.5031 127.014 6.02912C127.005 5.51386 127.044 4.99889 127.132 4.49114C127.415 3.04537 128.529 2.12817 129.928 2.12817Z" fill="#F3F3F3"/>
<path d="M151.85 11.5292L151.705 11.386C151.819 11.499 151.945 11.5984 152.081 11.6824C152.303 11.824 152.53 11.959 152.759 12.0908L152.903 12.234C152.673 12.1023 152.448 11.9673 152.224 11.8273C152.089 11.7422 151.963 11.6423 151.85 11.5292Z" fill="#F3F3F3"/>
<path d="M152.912 12.2363L152.768 12.093C153.716 12.6381 154.72 13.1321 155.697 13.6261C157.176 14.3802 158.724 15.0142 160.157 15.8392L160.3 15.9824C158.867 15.1591 157.319 14.5235 155.841 13.771C154.855 13.277 153.859 12.783 152.904 12.2363" fill="#F3F3F3"/>
<path d="M160.307 15.9785L160.164 15.8352C160.297 15.911 160.427 15.9883 160.557 16.0674C161.213 16.4606 161.82 16.931 162.365 17.4687L162.508 17.612C161.966 17.0748 161.363 16.6044 160.71 16.2106C160.58 16.1316 160.449 16.0542 160.315 15.9785" fill="#F3F3F3"/>
<path d="M147.514 15.3121L147.371 15.1688C145.637 13.43 145.003 11.1938 145.399 8.54761C145.854 5.57044 147.728 3.22394 150.56 2.2063L150.703 2.35121C147.871 3.36884 145.997 5.71369 145.542 8.69251C145.138 11.3371 145.772 13.5749 147.514 15.3121Z" fill="#F3F3F3"/>
<path d="M154.866 1.69067C157.859 1.69067 160.581 2.76265 162.904 5.10256C163.517 5.72006 163.969 6.58456 164.271 7.40789C164.651 8.44365 164.399 9.46293 163.495 10.2072C163.016 10.5775 162.426 10.7737 161.82 10.7638C161.31 10.7706 160.809 10.6293 160.377 10.3571C159.735 9.90816 159.136 9.40045 158.587 8.84049C158.086 8.34202 157.491 7.94934 156.835 7.68573C156.18 7.42212 155.479 7.29292 154.773 7.3058C154.244 7.30821 153.716 7.36337 153.198 7.47047C152.197 7.67465 151.554 8.3432 151.344 9.35096C151.134 10.3587 151.344 11.2841 152.225 11.8325C153.375 12.5587 154.62 13.1498 155.841 13.7739C157.455 14.5972 159.153 15.2773 160.695 16.2176C163.513 17.9433 164.986 20.5203 164.999 24.553C164.934 27.4758 163.298 30.0709 160.006 31.5332C158.495 32.1936 156.863 32.5302 155.215 32.5212C151.579 32.5212 147.91 30.97 145.571 28.2036C144.871 27.3803 144.388 26.4664 144.455 25.3302C144.491 24.6342 144.791 23.9781 145.294 23.4961C145.796 23.0141 146.464 22.7425 147.159 22.7367C147.676 22.7379 148.18 22.892 148.609 23.1797C149.174 23.5501 149.646 24.0738 150.138 24.5513C151.604 25.9806 153.251 26.8567 155.198 26.8567C155.648 26.8549 156.097 26.8102 156.538 26.7233C157.738 26.4878 158.753 25.9707 159.113 24.7061C159.473 23.4415 159.23 22.1982 158.173 21.3617C157.241 20.6505 156.239 20.0349 155.183 19.5241C153.325 18.5871 151.349 17.8675 149.547 16.8351C146.298 14.9743 145.013 12.1882 145.548 8.68571C146.063 5.31663 148.392 2.75771 151.872 2.01342C152.856 1.80062 153.859 1.69244 154.866 1.69067Z" fill="#F3F3F3"/>
<path d="M97.1625 26.2211L97.0195 26.0778C98.0797 25.6975 98.7963 24.8231 99.0708 23.4514C99.2484 22.4615 99.3326 21.457 99.3223 20.4512C99.3469 15.61 99.3223 10.7688 99.3436 5.92761C99.3326 5.31487 99.3905 4.70285 99.5162 4.1031C99.7447 3.12498 100.338 2.45644 101.17 2.16333L101.313 2.30659C100.478 2.60628 99.8877 3.26824 99.6592 4.24636C99.537 4.84708 99.4819 5.45957 99.4949 6.07251C99.4801 10.9137 99.4949 15.7533 99.4718 20.5944C99.4831 21.6002 99.3989 22.6048 99.2204 23.5947C98.9475 24.968 98.2342 25.8407 97.1691 26.2211" fill="#F3F3F3"/>
<path d="M102.398 2.12817C103.588 2.12817 104.596 2.77037 105 3.91645C105.199 4.52159 105.299 5.15493 105.296 5.792C105.325 8.61768 105.307 11.4434 105.307 14.269C105.246 17.0206 105.291 19.7738 105.223 22.5238C105.183 23.5793 105.026 24.6271 104.753 25.6475C103.881 29.033 101.739 31.1572 98.2807 31.8192C97.3089 32.0132 96.3211 32.1152 95.3303 32.1238C93.0802 32.1238 90.9533 31.5096 89.0697 29.8514C87.5279 28.5169 86.5584 26.6387 86.3626 24.6068C86.1523 22.6917 87.4195 21.2476 89.2801 21.2476C90.337 21.269 91.047 21.7054 91.4546 22.5979C91.6962 23.1347 91.8869 23.6945 92.1252 24.233C92.7942 25.7463 93.902 26.4593 95.59 26.4593C95.8053 26.4593 96.0289 26.4478 96.2623 26.4264C97.8204 26.2732 98.8756 25.3346 99.2208 23.6007C99.3993 22.6108 99.4835 21.6063 99.4723 20.6005C99.4969 15.7593 99.4805 10.9197 99.4953 6.07852C99.4823 5.46558 99.5374 4.85309 99.6597 4.25237C99.9588 2.96962 100.884 2.22862 102.165 2.1397C102.243 2.13147 102.321 2.12817 102.398 2.12817Z" fill="#F3F3F3"/>
<path d="M77.6485 14.2404L77.5039 14.0972C77.9888 13.2985 78.4211 12.5954 78.8468 11.8857C80.4137 9.27299 81.9817 6.66028 83.5508 4.04757C83.7152 3.77258 83.8796 3.50253 84.0719 3.244C84.4252 2.73444 84.9243 2.34406 85.5035 2.12427L85.6465 2.26753C85.0678 2.48742 84.5693 2.87782 84.2165 3.38726C84.0275 3.64579 83.8582 3.91584 83.6938 4.19083C82.1258 6.80025 80.56 9.41295 78.9963 12.029C78.5706 12.7387 78.1383 13.4434 77.6551 14.2404" fill="#F3F3F3"/>
<path d="M75.6804 31.4271L75.5374 31.2839C75.2159 30.96 74.9744 30.5652 74.8323 30.1312C74.667 29.5919 74.5844 29.0306 74.5874 28.4664C74.5628 25.8861 74.5874 23.3041 74.5611 20.7271C74.552 20.2682 74.4246 19.8196 74.1913 19.4246C71.6963 15.3557 69.1568 11.3213 66.6667 7.26067C66.2523 6.59754 65.9517 5.86951 65.7775 5.10683C65.5195 3.88171 66.1605 2.81797 67.2913 2.28445C67.3932 2.23669 67.4968 2.19388 67.5987 2.15601L67.7433 2.29927C67.6398 2.33714 67.5362 2.37995 67.4343 2.42771C66.3035 2.96122 65.6625 4.02497 65.9205 5.25009C66.095 6.01294 66.3961 6.74102 66.8114 7.40393C69.2998 11.4662 71.8409 15.4989 74.3343 19.558C74.5678 19.9523 74.6952 20.4005 74.7041 20.8588C74.7386 23.4392 74.7041 26.0228 74.7304 28.5982C74.7281 29.1623 74.8107 29.7235 74.9753 30.2629C75.118 30.6967 75.3594 31.0913 75.6804 31.4156" fill="#F3F3F3"/>
<path d="M86.5201 2.11646C87.0059 2.123 87.4836 2.24251 87.9155 2.46555C89.1762 3.09622 89.6989 4.36086 89.2436 5.83956C89.0726 6.35067 88.8379 6.8381 88.5451 7.29028C86.0369 11.3444 83.5007 15.3803 81.0172 19.446C80.7167 19.9668 80.5527 20.5554 80.5405 21.1568C80.4879 23.589 80.5241 26.0244 80.511 28.4582C80.5251 28.9731 80.481 29.4879 80.3795 29.9928C80.0622 31.353 79.0563 32.1648 77.7118 32.2175H77.5984C77.0103 32.2161 76.4382 32.0255 75.9663 31.674C75.4943 31.3224 75.1475 30.8284 74.9768 30.2645C74.8122 29.7251 74.7296 29.1639 74.7319 28.5998C74.7073 26.0211 74.7319 23.4375 74.7056 20.8604C74.6967 20.4021 74.5693 19.9539 74.3358 19.5596C71.8424 15.5005 69.3013 11.4679 66.8129 7.40554C66.3976 6.74264 66.0965 6.01456 65.922 5.25171C65.664 4.02494 66.305 2.96119 67.444 2.42932C67.8607 2.22854 68.3164 2.12228 68.7787 2.1181C69.1512 2.11491 69.5201 2.19191 69.8604 2.3439C70.2007 2.49589 70.5044 2.71931 70.751 2.99907C71.0534 3.35236 71.3219 3.73331 71.5531 4.13691C73.4422 7.26997 75.3258 10.4074 77.204 13.5493C77.3256 13.7501 77.4604 13.9445 77.651 14.2409C78.1343 13.4439 78.5665 12.7391 78.9922 12.0294C80.5603 9.41777 82.1261 6.80506 83.6898 4.19125C83.8541 3.91626 84.0185 3.64621 84.2124 3.38768C84.8206 2.55117 85.6375 2.11646 86.5201 2.11646Z" fill="#F3F3F3"/>
<path d="M137.791 12.1451L137.646 12.0018C137.402 11.7467 137.214 11.4425 137.096 11.1093C136.915 10.6301 136.722 10.1213 136.706 9.62731C136.653 8.00864 136.599 6.38338 136.706 4.7713C136.791 3.39633 137.464 2.48244 138.504 2.10864L138.649 2.25355C137.607 2.6257 136.936 3.53959 136.851 4.91456C136.749 6.52664 136.803 8.1519 136.851 9.77057C136.867 10.2646 137.061 10.7783 137.24 11.2526C137.358 11.5861 137.546 11.8905 137.791 12.1451Z" fill="#F3F3F3"/>
<path d="M139.88 2.05786C141.739 2.05786 142.778 3.22041 142.758 5.58831C142.55 7.39964 142.101 9.48267 141.172 11.434C140.793 12.2375 140.12 12.7068 139.231 12.7068C139.188 12.7068 139.146 12.7068 139.101 12.7068C138.169 12.6624 137.563 12.1058 137.244 11.2578C137.065 10.7802 136.871 10.2698 136.854 9.77578C136.802 8.15711 136.748 6.53185 136.854 4.91976C136.961 3.20065 137.985 2.20277 139.501 2.08091C139.627 2.06445 139.755 2.05786 139.88 2.05786Z" fill="#F3F3F3"/>
</svg>
