<svg width="109" height="40" viewBox="0 0 109 40" fill="none" xmlns="http://www.w3.org/2000/svg">
<g clip-path="url(#clip0_4057_73753)">
<path fill-rule="evenodd" clip-rule="evenodd" d="M101.408 13.3929C101.053 12.9564 100.595 12.52 100.081 12.52C99.4506 12.52 98.7357 12.9319 98.7357 13.9911C98.7357 14.3834 98.9133 14.8836 99.2684 15.32C100.236 16.5655 101.838 17.5806 104.09 17.5806C106.758 17.5806 108.992 16.0016 108.992 13.182C108.992 7.68504 102.03 8.22444 102.03 5.77753C102.03 4.82133 102.642 4.28193 103.67 4.28193C104.459 4.28193 105.095 4.48788 105.548 4.88507C106.062 5.30188 106.459 6.10608 107.31 6.10608C108.02 6.10608 108.655 5.60591 108.655 4.86056C108.655 3.78176 107.627 2.76671 106.74 2.22731C105.987 1.77127 105.001 1.41821 103.656 1.41821C101.404 1.45744 99.1889 2.74709 99.1889 5.81676C99.1889 10.7743 106.151 9.90148 106.151 13.0153C106.151 14.1333 105.319 14.6923 104.076 14.6923C102.969 14.7021 102.179 14.1823 101.408 13.3929ZM53.1006 7.67033C52.1708 7.85667 51.5774 8.24896 51.5774 9.18555C51.5774 10.1369 52.1521 10.6566 53.0772 10.7841C54.6798 10.9705 55.2312 11.554 55.2312 12.8388C55.2312 14.0205 54.3014 14.6629 52.5212 14.6629H49.6196V4.16424H52.7642C53.9509 4.16424 54.5443 4.90959 54.5443 6.03252C54.5443 7.00834 53.9883 7.50361 53.1006 7.67033ZM69.6735 13.2458C69.6735 14.6776 70.879 17.3746 74.201 17.3746C77.4811 17.3746 79.1444 15.32 79.1444 11.6325V3.37966C79.1444 2.30087 78.551 1.65849 77.7193 1.65849C76.8316 1.65849 76.2943 2.30087 76.2943 3.37966V11.6962C76.2943 13.5841 75.6822 14.4766 74.2758 14.4962C71.8835 14.5354 72.9115 11.8825 71.2107 11.7403C70.4631 11.6717 69.6735 12.1915 69.6735 13.2458ZM96.1098 7.15055C96.4463 7.15055 96.8621 6.96421 97.1004 6.42481C97.4742 5.57649 97.8526 3.95829 97.8526 3.23255C97.8526 2.23712 97.4181 1.61436 96.3902 1.61436C95.3436 1.65359 94.909 2.35971 94.909 3.66898V4.85075C94.8997 6.32184 95.2969 7.15055 96.1098 7.15055ZM65.0478 8.10676L61.8613 2.54605C61.5436 2.00665 61.2071 1.65359 60.5951 1.65359C59.7821 1.65359 59.1513 2.23221 59.1513 3.00208C59.1513 3.47773 59.2915 3.8308 59.5298 4.22309L63.6228 11.1078V15.7123C63.6228 16.7911 64.2769 17.4334 65.0245 17.4334C65.8749 17.4334 66.4683 16.7911 66.4683 15.7123V11.1078L70.5613 4.22309C70.7995 3.8308 70.935 3.47773 70.935 3.00208C70.935 2.23221 70.3043 1.65359 69.4913 1.65359C68.8792 1.65359 68.5428 2.00665 68.2251 2.54605L65.0478 8.10676ZM55.5723 9.05806C56.759 8.24896 57.3711 7.13093 57.3711 5.82167C57.3711 3.25217 55.6517 1.42802 52.1708 1.42802H48.2179C47.3675 1.42802 46.7928 2.00665 46.7928 2.89911V15.9624C46.7928 16.8352 47.3675 17.4334 48.2179 17.4334L52.1521 17.4727C56.6609 17.5119 58.1421 15.4818 58.1421 12.9908C58.1421 11.2058 57.1749 9.79851 55.5723 9.112C55.5723 9.112 55.5536 9.10219 55.5536 9.08258C55.5536 9.06787 55.5723 9.05806 55.5723 9.05806ZM87.5267 17.355C84.0458 17.355 82.032 15.1582 82.032 10.7792V3.37966C82.032 2.30087 82.6067 1.65849 83.457 1.65849C84.2887 1.65849 84.8821 2.30087 84.8821 3.37966V10.5537C84.8821 13.4958 85.7932 14.4324 87.5314 14.4324C89.2695 14.4324 90.1806 13.5007 90.1806 10.5537V3.37966C90.1806 2.30087 90.774 1.65849 91.6057 1.65849C92.456 1.65849 93.0307 2.30087 93.0307 3.37966V10.7841C93.0214 15.1582 91.0029 17.355 87.5267 17.355Z" fill="#823589"/>
<path fill-rule="evenodd" clip-rule="evenodd" d="M100.081 12.5203C100.595 12.5203 101.053 12.9567 101.408 13.3931C102.179 14.1826 102.969 14.7024 104.076 14.6926C105.239 14.6926 106.041 14.2036 106.141 13.2258C106.147 13.2917 106.151 13.3596 106.151 13.4294C106.151 14.5474 105.319 15.1065 104.076 15.1065C102.969 15.1163 102.179 14.5965 101.408 13.807C101.053 13.3706 100.595 12.9342 100.081 12.9342C99.4987 12.9342 98.844 13.2859 98.7479 14.1749C98.7399 14.1117 98.7358 14.0503 98.7358 13.9913C98.7358 12.9322 99.4507 12.5203 100.081 12.5203ZM108.988 13.3793C108.99 13.3143 108.992 13.2486 108.992 13.1822C108.992 9.8851 106.487 8.75969 104.482 7.85893C103.229 7.29587 102.171 6.82059 102.043 5.9575C102.034 6.03251 102.03 6.11059 102.03 6.19167C102.03 7.17089 103.145 7.67186 104.482 8.27283C106.442 9.15354 108.881 10.249 108.988 13.3793ZM108.641 5.05174C108.514 4.05766 107.566 3.14351 106.74 2.64145C105.987 2.18541 105.002 1.83235 103.656 1.83235C101.458 1.87064 99.2948 3.10039 99.1928 6.01417C99.1903 5.94949 99.1891 5.88378 99.1891 5.81701C99.1891 2.74734 101.404 1.45769 103.656 1.41846C105.002 1.41846 105.987 1.77152 106.74 2.22755C107.627 2.76695 108.655 3.782 108.655 4.8608C108.655 4.9264 108.65 4.99011 108.641 5.05174ZM51.5775 9.1858C51.5775 8.2492 52.1709 7.85691 53.1007 7.67058C53.9272 7.51535 54.4662 7.07535 54.5366 6.22789C54.5418 6.29907 54.5445 6.37203 54.5445 6.44666C54.5445 7.42248 53.9884 7.91775 53.1007 8.08447C52.241 8.25675 51.6689 8.60508 51.5875 9.39688C51.5809 9.32904 51.5775 9.25868 51.5775 9.1858ZM55.2243 13.0129C55.1358 14.0836 54.2121 14.6631 52.5213 14.6631H49.6198V15.077H52.5213C54.3015 15.077 55.2313 14.4347 55.2313 13.2529C55.2313 13.17 55.229 13.09 55.2243 13.0129ZM69.6827 13.4685C69.6766 13.3915 69.6736 13.3172 69.6736 13.246C69.6736 12.1917 70.4633 11.6719 71.2108 11.7406C71.9811 11.805 72.1917 12.3844 72.4138 12.9954C72.682 13.7335 72.9671 14.5179 74.2759 14.4964C75.6823 14.4768 76.2944 13.5843 76.2944 11.6965V12.1103C76.2944 13.9982 75.6823 14.8907 74.2759 14.9103C72.9671 14.9318 72.682 14.1474 72.4138 13.4093C72.1917 12.7983 71.9811 12.2189 71.2108 12.1545C70.51 12.0901 69.7722 12.5429 69.6827 13.4685ZM79.1445 3.7938V3.37991C79.1445 2.30111 78.5512 1.65873 77.7195 1.65873C76.8317 1.65873 76.2944 2.30111 76.2944 3.37991V3.7938C76.2944 2.715 76.8317 2.07263 77.7195 2.07263C78.5512 2.07263 79.1445 2.715 79.1445 3.7938ZM94.9092 4.85099V4.95142C94.909 4.91829 94.909 4.88481 94.9092 4.85099ZM94.9092 4.08312V3.66922C94.9092 2.35995 95.3437 1.65383 96.3903 1.6146C97.4182 1.6146 97.8528 2.23736 97.8528 3.2328C97.8528 3.29237 97.8502 3.35795 97.8453 3.42863C97.7841 2.56117 97.341 2.0285 96.3903 2.0285C95.3437 2.06773 94.9092 2.77385 94.9092 4.08312ZM61.8614 2.54629L65.048 8.107L68.2252 2.54629C68.5429 2.00689 68.8793 1.65383 69.4914 1.65383C70.3044 1.65383 70.9352 2.23246 70.9352 3.00233C70.9352 3.08369 70.9312 3.16146 70.9234 3.23646C70.8337 2.55802 70.2398 2.06773 69.4914 2.06773C68.8793 2.06773 68.5429 2.42079 68.2252 2.96019L65.048 8.52089L61.8614 2.96019C61.5437 2.42079 61.2073 2.06773 60.5952 2.06773C59.8474 2.06773 59.2537 2.55729 59.1634 3.23494C59.1555 3.16041 59.1514 3.08314 59.1514 3.00233C59.1514 2.23246 59.7822 1.65383 60.5952 1.65383C61.2073 1.65383 61.5437 2.00689 61.8614 2.54629ZM55.8712 9.25234C55.7761 9.32795 55.6764 9.40126 55.5724 9.4722C55.5724 9.4722 55.5537 9.482 55.5537 9.49671C55.5537 9.51633 55.5724 9.52614 55.5724 9.52614C57.1162 10.1874 58.0703 11.5176 58.1383 13.2099C58.1409 13.1373 58.1422 13.0644 58.1422 12.991C58.1422 11.32 57.2945 9.97985 55.8712 9.25234ZM57.3712 5.82191C57.3712 5.88599 57.3698 5.94962 57.3668 6.01277C57.2694 3.56139 55.5502 1.84216 52.1709 1.84216H48.218C47.3677 1.84216 46.793 2.42079 46.793 3.31325V2.89935C46.793 2.00689 47.3677 1.42826 48.218 1.42826H52.1709C55.6518 1.42826 57.3712 3.25241 57.3712 5.82191ZM82.0321 3.7938C82.0321 2.715 82.6068 2.07263 83.4572 2.07263C84.2888 2.07263 84.8822 2.715 84.8822 3.7938V3.37991C84.8822 2.30111 84.2888 1.65873 83.4572 1.65873C82.6068 1.65873 82.0321 2.30111 82.0321 3.37991V3.7938ZM84.8822 10.5539V10.9678C84.8822 13.91 85.7934 14.8466 87.5315 14.8466C89.2696 14.8466 90.1807 13.9149 90.1807 10.9678V10.5539C90.1807 13.501 89.2696 14.4327 87.5315 14.4327C85.7934 14.4327 84.8822 13.4961 84.8822 10.5539ZM90.1807 3.7938C90.1807 2.715 90.7741 2.07263 91.6058 2.07263C92.4562 2.07263 93.0309 2.715 93.0309 3.7938V3.37991C93.0309 2.30111 92.4562 1.65873 91.6058 1.65873C90.7741 1.65873 90.1807 2.30111 90.1807 3.37991V3.7938Z" fill="#BB6BD9"/>
</g>
<path d="M60.2049 36.4612V28.6669L56.8775 37.5927C56.7111 38.0536 56.3853 38.2841 55.9001 38.2841C55.4287 38.2841 55.1098 38.0536 54.9434 37.5927L51.616 28.6669V36.4612C51.616 36.9641 51.4427 37.3971 51.0961 37.7603C50.7495 38.1095 50.3267 38.2841 49.8275 38.2841C49.3284 38.2841 48.9056 38.1095 48.559 37.7603C48.2124 37.3971 48.0391 36.9641 48.0391 36.4612V26.844C48.0391 26.0478 48.3233 25.3634 48.8917 24.7907C49.4601 24.218 50.1395 23.9316 50.9297 23.9316C51.5398 23.9316 52.0943 24.1132 52.5934 24.4764C53.0926 24.8256 53.4392 25.2866 53.6333 25.8593L55.9001 32.0403L58.1877 25.8593C58.3956 25.2866 58.7492 24.8256 59.2483 24.4764C59.7474 24.1132 60.3019 23.9316 60.912 23.9316C61.6884 23.9316 62.3608 24.225 62.9292 24.8116C63.4976 25.3843 63.7819 26.0618 63.7819 26.844V36.4612C63.7819 36.9641 63.6086 37.3971 63.2619 37.7603C62.9153 38.1095 62.4925 38.2841 61.9934 38.2841C61.4943 38.2841 61.0714 38.1095 60.7248 37.7603C60.3782 37.3971 60.2049 36.9641 60.2049 36.4612Z" fill="#F4BB40"/>
<path d="M74.6989 31.7679V36.5869C74.6989 37.0479 74.5464 37.446 74.2414 37.7812C73.9364 38.1165 73.5551 38.2841 73.0976 38.2841C72.7233 38.2841 72.3836 38.1724 72.0786 37.9489C71.7874 37.7254 71.5864 37.439 71.4755 37.0898C71.1705 37.467 70.7338 37.7743 70.1653 38.0117C69.6108 38.2352 69.0146 38.347 68.3769 38.347C67.4895 38.347 66.6924 38.0466 65.9853 37.446C65.2782 36.8454 64.9247 36.0352 64.9247 35.0155C64.9247 33.898 65.2713 33.0879 65.9645 32.585C66.6577 32.0822 67.4618 31.8307 68.3769 31.8307C69.8465 31.8307 70.8863 32.2218 71.4963 33.0041V31.726C71.4963 31.279 71.3161 30.9228 70.9556 30.6574C70.5951 30.392 70.096 30.2593 69.4583 30.2593C68.7651 30.2593 68.0788 30.4409 67.3994 30.8041C67.2192 30.9018 67.039 30.9507 66.8587 30.9507C66.5399 30.9507 66.2626 30.832 66.0269 30.5945C65.7912 30.3571 65.6733 30.0777 65.6733 29.7564C65.6733 29.2815 65.8813 28.9323 66.2972 28.7088C67.448 28.0523 68.6888 27.724 70.0198 27.724C71.3923 27.724 72.5153 28.0383 73.3888 28.6669C74.2622 29.2815 74.6989 30.3152 74.6989 31.7679ZM71.4963 35.4974V34.5965C71.1358 34.1215 70.5397 33.8841 69.7078 33.8841C69.2364 33.8841 68.8482 33.9888 68.5432 34.1984C68.2521 34.4079 68.1065 34.6942 68.1065 35.0574C68.1065 35.4206 68.2521 35.7069 68.5432 35.9165C68.8482 36.126 69.2364 36.2308 69.7078 36.2308C70.5674 36.2308 71.1636 35.9863 71.4963 35.4974Z" fill="#F4BB40"/>
<path d="M82.5346 36.8803C82.5346 37.2016 82.4375 37.4809 82.2434 37.7184C82.0493 37.9558 81.8067 38.1095 81.5156 38.1793C81.1135 38.2911 80.6768 38.347 80.2054 38.347C78.1119 38.347 77.0652 37.3552 77.0652 35.3717V30.7831H76.6076C76.2194 30.7831 75.8867 30.6434 75.6094 30.3641C75.346 30.0847 75.2143 29.7564 75.2143 29.3793C75.2143 28.9882 75.346 28.6599 75.6094 28.3945C75.8867 28.1152 76.2194 27.9755 76.6076 27.9755H77.0652V26.6345C77.0652 26.1875 77.2177 25.8104 77.5227 25.5031C77.8416 25.1818 78.2228 25.0212 78.6665 25.0212C79.0963 25.0212 79.4637 25.1818 79.7687 25.5031C80.0876 25.8104 80.247 26.1875 80.247 26.6345V27.9755H81.0788C81.467 27.9755 81.7928 28.1152 82.0563 28.3945C82.3335 28.6599 82.4722 28.9882 82.4722 29.3793C82.4722 29.7564 82.3335 30.0847 82.0563 30.3641C81.7928 30.6434 81.467 30.7831 81.0788 30.7831H80.247V34.4707C80.247 34.7641 80.3232 35.0085 80.4757 35.2041C80.6283 35.3857 80.8293 35.4834 81.0788 35.4974H81.3908C81.7235 35.5114 81.9939 35.6511 82.2018 35.9165C82.4237 36.1819 82.5346 36.5031 82.5346 36.8803Z" fill="#F4BB40"/>
<path d="M90.0909 36.6708V32.2079C90.0909 31.1183 89.5364 30.5736 88.4272 30.5736C87.6647 30.5736 87.02 30.9018 86.4932 31.5583V36.6708C86.4932 37.1038 86.3337 37.4809 86.0149 37.8022C85.7099 38.1235 85.3355 38.2841 84.8919 38.2841C84.4482 38.2841 84.067 38.1304 83.7481 37.8231C83.4431 37.5019 83.2906 37.1177 83.2906 36.6708V25.545C83.2906 25.098 83.4431 24.7209 83.7481 24.4135C84.067 24.0923 84.4482 23.9316 84.8919 23.9316C85.3355 23.9316 85.7099 24.0923 86.0149 24.4135C86.3337 24.7209 86.4932 25.098 86.4932 25.545V29.2117C87.3112 28.2199 88.4688 27.724 89.9662 27.724C91.0614 27.724 91.8864 28.0034 92.4409 28.5621C93.0094 29.1209 93.2936 29.8961 93.2936 30.8879V36.6708C93.2936 37.1038 93.1341 37.4809 92.8153 37.8022C92.5102 38.1235 92.1359 38.2841 91.6923 38.2841C91.2486 38.2841 90.8673 38.1304 90.5485 37.8231C90.2435 37.5019 90.0909 37.1177 90.0909 36.6708Z" fill="#F4BB40"/>
<path d="M35.9445 0H3.85916C1.72781 0 0 1.73572 0 3.87685V36.1092C0 38.2504 1.72781 39.9861 3.85916 39.9861H35.9445C38.0759 39.9861 39.8037 38.2504 39.8037 36.1092V3.87685C39.8037 1.73572 38.0759 0 35.9445 0Z" fill="#823589"/>
<path d="M35.9428 0C36.9663 0 37.9479 0.408452 38.6716 1.1355C39.3953 1.86255 39.8019 2.84864 39.8019 3.87685V16.9874C39.8024 17.2915 39.7432 17.5926 39.6277 17.8736C39.5122 18.1546 39.3427 18.41 39.1288 18.6251C38.915 18.8402 38.6611 19.0109 38.3815 19.1274C38.102 19.2438 37.8023 19.3038 37.4997 19.3038H2.32137C1.70985 19.3038 1.12337 19.0597 0.690962 18.6253C0.258551 18.1909 0.015625 17.6018 0.015625 16.9874V3.87685C0.0156146 2.85167 0.419813 1.86822 1.13978 1.14167C1.85976 0.415119 2.83688 0.00462626 3.85737 0H35.9428Z" fill="url(#paint0_radial_4057_73753)"/>
<path d="M3.85916 39.9999C2.83565 39.9999 1.85406 39.5914 1.13032 38.8644C0.40659 38.1373 0 37.1512 0 36.123V22.9949C-3.46321e-07 22.6909 0.059665 22.3899 0.175582 22.1091C0.291499 21.8282 0.461395 21.5731 0.675548 21.3583C0.889702 21.1435 1.14391 20.9732 1.42364 20.8572C1.70336 20.7412 2.00312 20.6817 2.30575 20.6821H37.5014C38.112 20.6821 38.6976 20.9258 39.1294 21.3595C39.5611 21.7933 39.8037 22.3815 39.8037 22.9949V36.109C39.8055 36.6193 39.7071 37.125 39.514 37.5969C39.3208 38.0689 39.0369 38.498 38.6783 38.8594C38.3198 39.2209 37.8937 39.5077 37.4246 39.7034C36.9555 39.8991 36.4525 39.9999 35.9445 39.9999H3.85916Z" fill="url(#paint1_radial_4057_73753)"/>
<path d="M36.0198 1.28003H3.78468C2.39776 1.28003 1.27344 2.4095 1.27344 3.80278V36.1856C1.27344 37.5789 2.39776 38.7084 3.78468 38.7084H36.0198C37.4067 38.7084 38.5311 37.5789 38.5311 36.1856V3.80278C38.5311 2.4095 37.4067 1.28003 36.0198 1.28003Z" fill="#823589"/>
<path d="M25.7789 30.3L18.0467 32.5428C17.8907 32.5884 17.7273 32.6026 17.5659 32.5847C17.4044 32.5667 17.2481 32.517 17.1058 32.4384C16.9635 32.3598 16.838 32.2538 16.7365 32.1264C16.6349 31.999 16.5594 31.8528 16.5142 31.6961L10.6662 11.3287C10.6209 11.1722 10.6068 11.0083 10.6247 10.8464C10.6426 10.6844 10.6921 10.5276 10.7704 10.3849C10.8487 10.2423 10.9542 10.1165 11.081 10.0148C11.2077 9.91321 11.3532 9.83769 11.5091 9.79261L19.52 7.47281C20.4248 7.20288 21.3872 7.19532 22.2962 7.451C23.2051 7.70667 24.0236 8.21516 24.6574 8.91787C27.0328 11.5981 26.4686 15.076 24.3091 16.9655C25.9065 17.0603 27.4191 17.7193 28.5798 18.8259C29.7404 19.9326 30.4743 21.4158 30.6518 23.0134C30.8294 24.611 30.4391 26.2202 29.55 27.5567C28.6609 28.8933 27.3301 29.8711 25.7929 30.3175L25.7789 30.3Z" fill="#4C205B"/>
<path d="M26.9045 16.0074C27.5349 14.7775 27.7917 13.3886 27.6431 12.0132C27.4945 10.6379 26.947 9.33667 26.0686 8.27123C24.5674 6.3538 21.4013 5.3601 19.0677 6.05989L10.8478 8.44268C10.2187 8.62562 9.6875 9.05183 9.3708 9.62778C9.05411 10.2037 8.97779 10.8824 9.1586 11.5148L15.1633 32.3616C15.3469 32.9907 15.7707 33.5214 16.3423 33.838C16.9138 34.1546 17.5867 34.2313 18.2144 34.0516L26.4795 31.6548C29.2451 30.8535 31.8225 27.8549 32.1359 24.9823C32.6027 20.6575 30.1855 17.295 26.9045 16.0074ZM25.7795 30.3007L18.0472 32.5435C17.8915 32.5895 17.7282 32.604 17.5669 32.5862C17.4055 32.5685 17.2492 32.5188 17.1071 32.4401C16.9649 32.3614 16.8397 32.2552 16.7386 32.1276C16.6376 32 16.5626 31.8536 16.5182 31.6968L10.6633 11.3293C10.5739 11.0129 10.6127 10.6738 10.7713 10.386C10.9298 10.0983 11.1953 9.88519 11.5096 9.79328L19.5205 7.46997C20.4217 7.20263 21.3797 7.19574 22.2846 7.45008C23.1895 7.70442 24.0048 8.20971 24.637 8.90804C27.0229 11.5882 26.4621 15.0767 24.2887 16.9556C25.8861 17.0505 27.3988 17.7094 28.5594 18.8161C29.72 19.9228 30.4539 21.4059 30.6315 23.0035C30.809 24.6011 30.4187 26.2104 29.5296 27.5469C28.6405 28.8835 27.3098 29.8613 25.7725 30.3077L25.7795 30.3007Z" fill="white"/>
<path d="M28.1918 24.8737C28.1919 23.2172 27.5424 21.6273 26.3839 20.4485C25.2255 19.2696 23.6513 18.5967 22.0025 18.5756C24.0923 16.7806 24.6287 13.4636 22.4065 10.8779C21.7933 10.1757 20.9931 9.66425 20.1001 9.40388C19.2072 9.1435 18.2587 9.14503 17.3666 9.40829L10.6758 11.3607L16.5203 31.6967C16.5647 31.8535 16.6396 31.9999 16.7407 32.1275C16.8418 32.2551 16.967 32.3613 17.1092 32.44C17.2513 32.5187 17.4076 32.5684 17.5689 32.5862C17.7303 32.6039 17.8936 32.5894 18.0493 32.5434L23.5246 30.9514L23.6047 30.9269C24.9217 30.5584 26.0827 29.7675 26.9108 28.6747C27.7389 27.5819 28.1888 26.2471 28.1918 24.8737Z" fill="#823589"/>
<defs>
<radialGradient id="paint0_radial_4057_73753" cx="0" cy="0" r="1" gradientUnits="userSpaceOnUse" gradientTransform="translate(20.09 -13.387) rotate(90) scale(24.6397 31.3949)">
<stop offset="0.82" stop-color="#A154A1"/>
<stop offset="0.89" stop-color="#823589"/>
</radialGradient>
<radialGradient id="paint1_radial_4057_73753" cx="0" cy="0" r="1" gradientUnits="userSpaceOnUse" gradientTransform="translate(19.959 53.3729) rotate(-90) scale(24.6397 31.3949)">
<stop offset="0.82" stop-color="#5F286E"/>
<stop offset="0.89" stop-color="#823589"/>
</radialGradient>
<clipPath id="clip0_4057_73753">
<rect width="62.2081" height="16.1525" fill="white" transform="translate(46.793 1.42847)"/>
</clipPath>
</defs>
</svg>
