<?xml version="1.0" standalone="no"?>
<!DOCTYPE svg PUBLIC "-//W3C//DTD SVG 20010904//EN"
 "http://www.w3.org/TR/2001/REC-SVG-20010904/DTD/svg10.dtd">
<svg version="1.0" xmlns="http://www.w3.org/2000/svg"
 width="720.000000pt" height="567.000000pt" viewBox="0 0 720.000000 567.000000"
 preserveAspectRatio="xMidYMid meet">

<g transform="translate(0.000000,567.000000) scale(0.100000,-0.100000)"
fill="#000000" stroke="none">
<path d="M774 3446 c-64 -30 -120 -85 -148 -145 -20 -44 -21 -63 -24 -434 -3
-455 -2 -462 79 -551 37 -40 65 -61 106 -76 54 -20 71 -21 457 -18 l401 3 51
27 c59 31 108 84 138 147 20 44 21 60 21 446 0 386 -1 402 -21 446 -28 60 -76
114 -133 147 l-46 27 -415 3 -415 2 -51 -24z m371 -85 c90 -40 155 -160 140
-254 -7 -40 -30 -97 -40 -97 -3 0 -16 21 -29 48 l-24 47 25 29 c57 66 -10 168
-89 135 -15 -6 -28 -13 -28 -15 0 -2 36 -83 80 -181 70 -158 77 -179 62 -187
-9 -5 -33 -22 -53 -37 l-36 -28 -83 210 c-94 242 -104 272 -95 306 11 44 99
57 170 24z m-57 -438 l21 -52 -35 -68 c-61 -119 -57 -282 9 -328 26 -18 89
-19 140 -1 34 13 38 12 35 -2 -5 -27 -95 -54 -157 -49 -48 3 -59 8 -87 41 -17
20 -38 58 -45 84 -16 57 -16 181 0 242 17 62 83 202 91 193 4 -4 16 -31 28
-60z m352 -38 c76 -39 81 -139 12 -249 -30 -48 -53 -36 -27 15 42 81 11 155
-63 153 -100 -3 -212 -119 -212 -221 0 -45 -14 -31 -31 31 -29 104 55 222 191
269 57 20 94 21 130 2z m-56 -265 c33 -72 56 -133 52 -137 -3 -4 -18 -2 -33 3
-22 7 -37 31 -79 127 -47 104 -51 118 -36 127 10 5 22 10 27 10 6 0 37 -59 69
-130z m-78 -21 c44 -104 47 -113 33 -137 -8 -14 -18 -25 -24 -25 -5 0 -32 55
-58 122 -46 117 -48 123 -30 137 10 7 21 14 24 14 4 0 28 -50 55 -111z m134
-229 c0 -27 -3 -50 -6 -50 -3 0 -23 15 -45 32 l-41 33 22 17 c12 10 33 18 46
18 22 0 24 -4 24 -50z"/>
<path d="M2032 3184 c-22 -15 -22 -16 -22 -334 l0 -319 26 -20 c33 -26 55 -26
85 -2 23 19 24 25 29 198 l5 178 88 -168 c106 -200 135 -228 184 -174 11 12
58 92 103 177 45 85 86 159 91 165 5 5 9 -68 9 -173 0 -169 1 -183 20 -202 26
-26 60 -25 88 0 22 21 22 25 22 339 0 295 -1 319 -18 334 -24 22 -54 21 -81 0
-12 -10 -77 -116 -144 -237 -67 -120 -126 -219 -132 -219 -5 0 -64 99 -131
219 -67 120 -131 226 -144 236 -27 22 -49 23 -78 2z"/>
<path d="M3860 3182 c-44 -35 -15 -112 42 -112 22 0 68 42 68 63 0 25 -41 67
-65 67 -12 0 -33 -8 -45 -18z"/>
<path d="M4290 3191 c-97 -30 -177 -102 -223 -199 -27 -57 -31 -78 -31 -147 0
-69 4 -90 31 -147 78 -167 258 -247 428 -190 l59 20 29 -24 c36 -30 42 -30 72
1 30 29 31 35 5 68 l-20 25 34 50 c65 97 75 248 22 356 -35 71 -119 148 -191
175 -57 22 -164 27 -215 12z m190 -141 c71 -36 110 -111 110 -209 0 -54 -29
-141 -47 -141 -4 0 -24 18 -44 40 -38 41 -64 49 -91 28 -33 -27 -31 -55 8 -98
20 -22 34 -43 31 -47 -15 -15 -114 -5 -155 16 -141 72 -158 297 -30 394 65 50
142 56 218 17z"/>
<path d="M6370 3130 c-14 -14 -20 -33 -20 -63 0 -39 -3 -44 -32 -52 -39 -12
-53 -34 -44 -68 5 -20 14 -28 41 -33 l35 -6 0 -154 c0 -180 11 -223 65 -248
65 -31 165 -12 180 34 15 46 -7 66 -63 61 -47 -4 -52 11 -52 165 l0 144 38 0
c47 0 82 24 82 55 0 31 -35 55 -82 55 l-38 0 0 45 c0 52 -25 85 -65 85 -14 0
-34 -9 -45 -20z"/>
<path d="M2859 3001 c-23 -19 -24 -23 -23 -178 0 -92 5 -176 12 -200 25 -84
89 -133 177 -133 61 0 103 19 143 64 l32 37 0 -31 c0 -37 31 -70 65 -70 14 0
34 9 45 20 19 19 20 33 20 239 0 206 -1 220 -21 245 -25 31 -61 34 -89 6 -18
-18 -20 -33 -20 -155 0 -150 -9 -187 -55 -223 -39 -31 -105 -30 -142 2 l-28
24 -5 167 c-5 160 -6 168 -29 186 -30 24 -53 24 -82 0z"/>
<path d="M3484 3001 c-104 -47 -124 -169 -38 -239 19 -16 63 -37 97 -47 82
-24 107 -40 107 -70 0 -62 -134 -61 -175 2 -10 15 -25 23 -43 23 -64 0 -72
-63 -14 -120 46 -46 105 -64 185 -57 107 10 177 73 177 162 0 74 -47 116 -173
155 -35 11 -70 27 -77 35 -17 21 -9 47 21 64 32 18 69 9 105 -24 44 -41 104
-29 104 21 0 58 -88 114 -180 114 -32 0 -72 -8 -96 -19z"/>
<path d="M3862 3004 c-22 -15 -22 -19 -22 -248 0 -213 2 -234 18 -249 28 -26
67 -21 92 10 20 26 21 35 18 246 -3 216 -3 219 -27 238 -28 23 -49 24 -79 3z"/>
<path d="M4812 3004 c-21 -15 -22 -21 -22 -183 0 -178 6 -214 48 -270 30 -40
76 -61 137 -61 61 0 103 19 143 64 l32 37 0 -31 c0 -37 31 -70 65 -70 14 0 34
9 45 20 19 19 20 33 20 239 0 206 -1 220 -21 245 -25 31 -61 34 -89 6 -18 -18
-20 -33 -20 -155 0 -150 -9 -187 -55 -223 -39 -31 -105 -30 -142 2 l-28 24 -5
167 c-5 160 -6 168 -29 186 -28 23 -49 24 -79 3z"/>
<path d="M5501 3003 c-69 -24 -136 -96 -156 -167 -39 -136 15 -264 135 -320
61 -28 188 -29 243 -2 52 26 73 59 59 91 -14 30 -31 31 -104 5 -80 -28 -156
-11 -192 44 -35 55 -31 56 154 56 157 0 172 2 190 20 24 24 25 49 4 119 -39
131 -194 203 -333 154z m179 -129 c15 -16 31 -39 35 -51 6 -23 6 -23 -119 -23
-81 0 -126 4 -126 10 0 6 7 24 14 39 34 66 143 79 196 25z"/>
<path d="M5970 2998 c-102 -52 -119 -159 -38 -235 13 -13 56 -34 95 -47 98
-33 113 -43 113 -71 0 -31 -26 -45 -83 -45 -37 0 -51 6 -83 35 -47 44 -90 48
-104 9 -12 -31 6 -70 50 -108 86 -72 260 -55 325 32 31 41 28 132 -5 167 -31
33 -67 52 -134 72 -91 26 -118 59 -80 97 24 25 67 19 109 -14 80 -64 154 -12
93 65 -50 64 -174 85 -258 43z"/>
</g>
</svg>
