<?xml version="1.0" standalone="no"?>
<!DOCTYPE svg PUBLIC "-//W3C//DTD SVG 20010904//EN"
 "http://www.w3.org/TR/2001/REC-SVG-20010904/DTD/svg10.dtd">
<svg version="1.0" xmlns="http://www.w3.org/2000/svg"
 width="500.000000pt" height="394.000000pt" viewBox="0 0 500.000000 394.000000"
 preserveAspectRatio="xMidYMid meet">

<g transform="translate(0.000000,394.000000) scale(0.100000,-0.100000)"
fill="#000000" stroke="none">
<path d="M1431 2262 c-46 -23 -73 -62 -75 -108 -2 -58 26 -57 42 1 12 47 55
85 95 85 50 0 107 -58 107 -110 0 -13 7 -20 20 -20 16 0 20 7 20 34 0 66 -74
136 -145 136 -16 0 -45 -8 -64 -18z"/>
<path d="M1480 2145 c-11 -13 -11 -19 3 -32 21 -21 49 -9 45 19 -4 28 -30 35
-48 13z"/>
<path d="M985 2046 c-67 -30 -85 -81 -85 -242 0 -81 4 -115 13 -123 8 -6 17
-8 20 -4 4 3 7 54 7 112 1 172 22 222 94 224 27 1 43 -6 64 -26 26 -27 27 -30
30 -167 3 -130 5 -140 23 -140 18 0 19 8 19 135 0 134 0 135 29 167 23 26 36
32 66 31 66 -2 94 -54 95 -176 0 -101 47 -157 132 -157 60 0 103 21 128 63 17
27 20 51 20 165 0 122 -2 133 -17 130 -16 -3 -19 -20 -23 -136 -5 -131 -5
-134 -33 -158 -30 -26 -83 -32 -118 -14 -31 17 -49 64 -49 132 0 84 -14 128
-51 164 -26 25 -38 29 -84 29 -39 0 -61 -6 -83 -22 l-29 -22 -48 25 c-55 27
-77 29 -120 10z"/>
<path d="M1805 2045 c-52 -19 -75 -48 -75 -95 0 -49 26 -71 118 -101 37 -11
77 -28 90 -35 52 -33 3 -94 -76 -94 -38 0 -49 5 -78 35 -36 38 -49 43 -58 20
-10 -26 54 -87 100 -94 62 -11 115 3 146 38 62 69 25 127 -107 171 -43 14 -83
33 -89 42 -17 28 8 66 53 78 49 13 86 1 121 -40 17 -21 29 -27 39 -21 20 13 5
47 -33 76 -41 31 -100 39 -151 20z"/>
<path d="M2186 2050 c-45 -14 -85 -59 -103 -117 -29 -93 7 -202 79 -239 43
-22 121 -20 162 5 42 26 65 66 47 84 -10 9 -16 8 -29 -8 -45 -54 -123 -72
-170 -39 -26 18 -52 65 -52 94 0 19 6 20 115 20 102 0 117 2 135 20 22 22 20
47 -7 107 -27 59 -112 94 -177 73z m112 -56 c24 -16 54 -73 46 -86 -3 -5 -54
-8 -115 -8 -100 0 -109 2 -109 19 0 26 38 71 74 87 34 15 68 11 104 -12z"/>
<path d="M2544 2050 c-39 -12 -72 -48 -80 -86 -9 -49 29 -85 120 -114 86 -27
117 -49 109 -80 -8 -32 -43 -50 -96 -50 -44 0 -53 4 -83 37 -27 29 -37 34 -46
25 -10 -10 -10 -18 2 -39 22 -40 73 -65 129 -65 61 0 107 24 128 67 14 28 14
38 3 65 -14 34 -37 48 -120 75 -76 24 -100 41 -100 70 0 67 154 80 175 14 8
-24 34 -32 42 -13 22 57 -99 119 -183 94z"/>
<path d="M2916 2050 c-65 -20 -106 -90 -106 -185 0 -119 56 -185 157 -185 41
0 58 5 82 26 42 35 56 63 41 78 -9 8 -17 4 -34 -15 -31 -36 -58 -49 -98 -49
-67 0 -108 57 -108 147 0 63 26 114 70 135 46 22 84 14 124 -28 24 -24 36 -30
43 -23 17 17 -4 56 -41 78 -39 24 -92 33 -130 21z"/>
<path d="M3274 2049 c-18 -5 -46 -25 -62 -44 -72 -81 -68 -211 8 -287 35 -35
42 -38 95 -38 111 0 160 56 160 185 0 67 -4 86 -23 118 -37 58 -112 86 -178
66z m113 -56 c27 -18 53 -82 53 -130 0 -49 -34 -117 -66 -131 -73 -34 -144 4
-164 87 -32 136 74 240 177 174z"/>
<path d="M3577 2054 c-4 -4 -7 -90 -7 -191 0 -176 1 -183 20 -183 19 0 20 7
20 105 0 153 29 210 118 230 30 6 43 27 23 39 -18 12 -73 -7 -102 -35 -17 -16
-33 -29 -34 -29 -2 0 -5 14 -7 32 -3 31 -17 45 -31 32z"/>
<path d="M3909 2051 c-76 -24 -119 -90 -119 -184 0 -69 17 -112 58 -151 69
-64 196 -46 237 34 14 28 14 31 0 36 -10 4 -22 -1 -31 -15 -36 -51 -122 -67
-168 -30 -28 22 -56 68 -56 94 0 13 17 15 109 15 60 0 122 5 137 10 25 10 26
14 22 55 -6 45 -43 106 -76 124 -28 15 -85 21 -113 12z m75 -45 c37 -16 76
-60 76 -87 0 -17 -9 -19 -116 -19 -115 0 -115 0 -108 23 16 52 46 78 112 96 1
1 17 -5 36 -13z"/>
</g>
</svg>
