<?xml version="1.0" standalone="no"?>
<!DOCTYPE svg PUBLIC "-//W3C//DTD SVG 20010904//EN"
 "http://www.w3.org/TR/2001/REC-SVG-20010904/DTD/svg10.dtd">
<svg version="1.0" xmlns="http://www.w3.org/2000/svg"
 width="720.000000pt" height="567.000000pt" viewBox="0 0 720.000000 567.000000"
 preserveAspectRatio="xMidYMid meet">

<g transform="translate(0.000000,567.000000) scale(0.100000,-0.100000)"
fill="#000000" stroke="none">
<path d="M805 4122 c-99 -34 -174 -117 -195 -215 -8 -37 -10 -357 -8 -1092 l3
-1040 24 -49 c30 -61 87 -117 149 -148 l47 -23 2775 0 2775 0 50 25 c63 31
121 89 149 149 l21 46 0 1070 0 1070 -21 46 c-28 60 -93 125 -153 153 l-46 21
-2760 2 c-2597 2 -2763 1 -2810 -15z m1535 -537 c0 -10 10 -15 30 -15 19 0 30
-5 30 -14 0 -8 14 -17 30 -21 17 -4 30 -11 30 -16 0 -5 7 -9 15 -9 10 0 15
-10 15 -30 0 -20 5 -30 15 -30 10 0 15 -10 15 -30 0 -20 5 -30 15 -30 12 0 15
-17 15 -90 0 -73 -3 -90 -15 -90 -10 0 -15 -10 -15 -30 0 -20 -5 -30 -15 -30
-8 0 -15 -9 -15 -20 0 -11 -7 -20 -15 -20 -8 0 -15 -7 -15 -15 0 -8 -7 -15
-15 -15 -8 0 -15 -4 -15 -10 0 -5 -7 -10 -15 -10 -8 0 -15 -6 -15 -14 0 -8
-13 -17 -30 -21 -16 -4 -30 -11 -30 -16 0 -5 -7 -9 -15 -9 -8 0 -15 -7 -15
-15 0 -8 7 -15 15 -15 8 0 15 -9 15 -20 0 -11 7 -20 15 -20 9 0 15 -9 15 -25
0 -16 6 -25 15 -25 8 0 15 -7 15 -15 0 -8 7 -15 15 -15 8 0 15 -9 15 -20 0
-11 7 -20 15 -20 9 0 15 -9 15 -25 0 -16 6 -25 15 -25 8 0 15 -7 15 -15 0 -8
7 -15 15 -15 12 0 15 -13 15 -60 0 -47 -3 -60 -15 -60 -8 0 -15 -7 -15 -15 0
-12 -13 -15 -60 -15 -47 0 -60 3 -60 15 0 8 -7 15 -15 15 -8 0 -15 7 -15 15 0
8 -7 15 -15 15 -9 0 -15 9 -15 25 0 16 -6 25 -15 25 -8 0 -15 9 -15 20 0 11
-7 20 -15 20 -8 0 -15 7 -15 15 0 8 -7 15 -15 15 -9 0 -15 9 -15 25 0 16 -6
25 -15 25 -8 0 -15 9 -15 20 0 11 -7 20 -15 20 -8 0 -15 7 -15 15 0 8 -7 15
-15 15 -9 0 -15 9 -15 25 0 16 -6 25 -15 25 -8 0 -15 9 -15 20 0 11 -7 20 -15
20 -8 0 -15 5 -15 10 0 6 -42 10 -105 10 l-105 0 0 -175 c0 -149 -2 -175 -15
-175 -8 0 -15 -9 -15 -20 0 -11 -7 -20 -15 -20 -8 0 -15 -4 -15 -10 0 -5 -20
-10 -45 -10 -25 0 -45 5 -45 10 0 6 -7 10 -15 10 -8 0 -15 7 -15 15 0 8 -7 15
-15 15 -13 0 -15 34 -15 245 0 211 2 245 15 245 8 0 15 7 15 15 0 8 6 15 14
15 8 0 16 6 19 13 3 9 61 12 238 14 379 2 359 1 359 18 0 8 7 15 15 15 10 0
15 10 15 30 0 20 5 30 15 30 11 0 15 11 15 40 0 29 -4 40 -15 40 -8 0 -15 9
-15 20 0 11 -6 20 -14 20 -8 0 -16 6 -18 13 -4 9 -102 13 -436 15 l-432 3 0
-406 c0 -353 -2 -405 -15 -405 -8 0 -15 -7 -15 -15 0 -12 -13 -15 -60 -15 -47
0 -60 3 -60 15 0 8 -7 15 -15 15 -13 0 -15 52 -15 405 l0 405 -180 0 -180 0 0
90 0 90 720 0 c633 0 720 -2 720 -15z m540 -480 c0 -433 -2 -495 -15 -495 -8
0 -15 -7 -15 -15 0 -12 -13 -15 -60 -15 -47 0 -60 3 -60 15 0 8 -7 15 -15 15
-13 0 -15 62 -15 495 l0 495 90 0 90 0 0 -495z m390 480 c0 -8 7 -15 15 -15 8
0 15 -9 15 -20 0 -11 7 -20 15 -20 9 0 15 -9 15 -25 0 -16 6 -25 15 -25 8 0
15 -7 15 -15 0 -8 7 -15 15 -15 8 0 15 -9 15 -20 0 -11 7 -20 15 -20 9 0 15
-9 15 -25 0 -16 6 -25 15 -25 8 0 15 -7 15 -15 0 -8 7 -15 15 -15 8 0 15 -7
15 -15 0 -8 7 -15 15 -15 8 0 15 -9 15 -20 0 -11 7 -20 15 -20 9 0 15 -9 15
-25 0 -16 6 -25 15 -25 8 0 15 -7 15 -15 0 -8 7 -15 15 -15 8 0 15 -9 15 -20
0 -11 7 -20 15 -20 9 0 15 -9 15 -25 0 -16 6 -25 15 -25 8 0 15 -7 15 -15 0
-8 7 -15 15 -15 8 0 15 -7 15 -15 0 -8 7 -15 15 -15 10 0 15 -10 15 -30 0 -20
5 -30 15 -30 8 0 15 -7 15 -15 0 -8 7 -15 15 -15 13 0 15 43 15 330 l0 330 83
0 c45 0 92 -3 105 -6 l22 -6 0 -489 c0 -428 -2 -489 -15 -489 -8 0 -15 -7 -15
-15 0 -12 -15 -15 -75 -15 -43 0 -75 4 -75 10 0 6 -7 10 -15 10 -8 0 -15 7
-15 15 0 8 -7 15 -15 15 -8 0 -15 9 -15 20 0 11 -7 20 -15 20 -8 0 -15 7 -15
15 0 8 -7 15 -15 15 -9 0 -15 9 -15 25 0 16 -6 25 -15 25 -8 0 -15 9 -15 20 0
11 -7 20 -15 20 -8 0 -15 7 -15 15 0 8 -7 15 -15 15 -9 0 -15 9 -15 25 0 16
-6 25 -15 25 -8 0 -15 7 -15 15 0 8 -7 15 -15 15 -8 0 -15 9 -15 20 0 11 -7
20 -15 20 -8 0 -15 7 -15 15 0 8 -7 15 -15 15 -9 0 -15 9 -15 25 0 16 -6 25
-15 25 -8 0 -15 9 -15 20 0 11 -7 20 -15 20 -8 0 -15 7 -15 15 0 8 -7 15 -15
15 -9 0 -15 9 -15 25 0 16 -6 25 -15 25 -8 0 -15 9 -15 20 0 11 -7 20 -15 20
-8 0 -15 7 -15 15 0 8 -7 15 -15 15 -8 0 -15 7 -15 15 0 8 -7 15 -15 15 -13 0
-15 -41 -15 -305 0 -264 -2 -305 -15 -305 -8 0 -15 -7 -15 -15 0 -8 -7 -15
-15 -15 -8 0 -15 -4 -15 -10 0 -5 -20 -10 -45 -10 -25 0 -45 5 -45 10 0 6 -7
10 -15 10 -10 0 -15 10 -15 30 0 20 -5 30 -15 30 -13 0 -15 58 -15 464 0 434
1 465 18 469 9 3 56 5 105 6 71 1 87 -2 87 -14z m1080 -480 c0 -433 -2 -495
-15 -495 -8 0 -15 -7 -15 -15 0 -12 -13 -15 -60 -15 -47 0 -60 3 -60 15 0 8
-7 15 -15 15 -13 0 -15 62 -15 495 l0 495 90 0 90 0 0 -495z m1110 480 c0 -8
7 -15 15 -15 8 0 15 -9 15 -20 0 -11 7 -20 15 -20 9 0 15 -9 15 -25 0 -16 6
-25 15 -25 8 0 15 -7 15 -15 0 -8 7 -15 15 -15 8 0 15 -9 15 -20 0 -11 7 -20
15 -20 9 0 15 -9 15 -25 0 -16 6 -25 15 -25 8 0 15 -9 15 -20 0 -11 7 -20 15
-20 8 0 15 -7 15 -15 0 -8 7 -15 15 -15 9 0 15 -9 15 -25 0 -16 6 -25 15 -25
8 0 15 -9 15 -20 0 -16 7 -20 30 -20 23 0 30 4 30 20 0 11 7 20 15 20 9 0 15
9 15 25 0 16 6 25 15 25 8 0 15 7 15 15 0 8 7 15 15 15 8 0 15 9 15 20 0 11 7
20 15 20 9 0 15 9 15 25 0 16 6 25 15 25 8 0 15 9 15 20 0 11 7 20 15 20 8 0
15 7 15 15 0 8 7 15 15 15 9 0 15 9 15 25 0 16 6 25 15 25 8 0 15 9 15 20 0
11 7 20 15 20 8 0 15 7 15 15 0 12 17 15 98 15 53 0 107 -3 120 -6 25 -7 30
-24 7 -24 -8 0 -15 -9 -15 -20 0 -11 -7 -20 -15 -20 -9 0 -15 -9 -15 -25 0
-16 -6 -25 -15 -25 -8 0 -15 -7 -15 -15 0 -8 -7 -15 -15 -15 -8 0 -15 -9 -15
-20 0 -11 -7 -20 -15 -20 -9 0 -15 -9 -15 -25 0 -16 -6 -25 -15 -25 -8 0 -15
-7 -15 -15 0 -8 -7 -15 -15 -15 -8 0 -15 -9 -15 -20 0 -11 -7 -20 -15 -20 -9
0 -15 -9 -15 -25 0 -16 -6 -25 -15 -25 -8 0 -15 -7 -15 -15 0 -8 -7 -15 -15
-15 -8 0 -15 -9 -15 -20 0 -11 -7 -20 -15 -20 -9 0 -15 -9 -15 -25 0 -16 -6
-25 -15 -25 -8 0 -15 -7 -15 -15 0 -8 -7 -15 -15 -15 -8 0 -15 -9 -15 -20 0
-11 -7 -20 -15 -20 -9 0 -15 -9 -15 -25 0 -16 -6 -25 -15 -25 -13 0 -15 -28
-15 -195 0 -167 -2 -195 -15 -195 -8 0 -15 -7 -15 -15 0 -12 -13 -15 -60 -15
-47 0 -60 3 -60 15 0 8 -7 15 -15 15 -13 0 -15 28 -15 195 0 167 -2 195 -15
195 -9 0 -15 9 -15 25 0 16 -6 25 -15 25 -8 0 -15 9 -15 20 0 11 -7 20 -15 20
-8 0 -15 7 -15 15 0 8 -7 15 -15 15 -9 0 -15 9 -15 25 0 16 -6 25 -15 25 -8 0
-15 9 -15 20 0 11 -7 20 -15 20 -8 0 -15 7 -15 15 0 8 -7 15 -15 15 -9 0 -15
9 -15 25 0 16 -6 25 -15 25 -8 0 -15 9 -15 20 0 11 -7 20 -15 20 -8 0 -15 7
-15 15 0 8 -7 15 -15 15 -9 0 -15 9 -15 24 0 32 -18 36 -187 36 l-143 0 0
-390 c0 -340 -2 -390 -15 -390 -8 0 -15 -9 -15 -20 0 -11 -7 -20 -15 -20 -8 0
-15 -4 -15 -10 0 -5 -20 -10 -45 -10 -25 0 -45 5 -45 10 0 6 -7 10 -15 10 -8
0 -15 9 -15 20 0 11 -7 20 -15 20 -13 0 -15 50 -15 390 l0 390 -180 0 -180 0
0 90 0 90 495 0 c433 0 495 -2 495 -15z m-4050 -1169 c0 -8 14 -17 30 -21 36
-8 39 -21 7 -29 -32 -8 -67 3 -67 21 0 12 -7 13 -27 8 -16 -3 -29 -11 -31 -16
-2 -5 -10 -9 -18 -9 -8 0 -14 -7 -14 -15 0 -8 -7 -15 -15 -15 -12 0 -15 -17
-15 -90 0 -73 3 -90 15 -90 8 0 15 -7 15 -15 0 -12 13 -15 60 -15 47 0 60 3
60 15 0 17 4 18 38 9 25 -7 30 -24 7 -24 -8 0 -15 -6 -15 -14 0 -8 -13 -17
-30 -21 -16 -4 -30 -11 -30 -16 0 -5 -20 -9 -45 -9 -33 0 -45 4 -45 15 0 8 -7
15 -15 15 -8 0 -15 7 -15 15 0 8 -7 15 -15 15 -10 0 -15 10 -15 30 0 20 -5 30
-15 30 -12 0 -15 13 -15 60 0 47 3 60 15 60 11 0 15 11 15 40 0 29 4 40 15 40
8 0 15 6 15 14 0 18 20 23 93 25 43 1 57 -2 57 -13z m300 -1 c0 -8 7 -15 15
-15 10 0 15 -10 15 -30 0 -20 5 -30 15 -30 12 0 15 -17 15 -90 0 -73 -3 -90
-15 -90 -8 0 -15 -9 -15 -20 0 -11 -7 -20 -15 -20 -8 0 -15 -7 -15 -15 0 -8
-7 -15 -15 -15 -8 0 -15 -4 -15 -10 0 -5 -20 -10 -45 -10 -25 0 -45 4 -45 9 0
5 -13 12 -30 16 -16 4 -30 13 -30 21 0 8 -7 14 -15 14 -11 0 -15 12 -15 45 0
33 -4 45 -15 45 -11 0 -15 11 -15 40 0 29 4 40 15 40 10 0 15 11 15 35 0 24 5
35 15 35 8 0 15 7 15 15 0 8 7 15 15 15 8 0 15 7 15 15 0 12 15 15 75 15 60 0
75 -3 75 -15z m150 -135 l0 -150 90 0 c83 0 90 -1 90 -20 0 -11 -7 -20 -15
-20 -8 0 -15 -4 -15 -10 0 -6 -37 -10 -90 -10 l-90 0 0 180 c0 153 2 180 15
180 13 0 15 -23 15 -150z m270 0 l0 -150 75 0 75 0 0 -30 0 -30 -90 0 c-73 0
-90 3 -90 15 0 8 -7 15 -15 15 -13 0 -15 24 -15 159 0 144 2 160 18 164 42 11
42 13 42 -143z m420 130 c0 -18 -7 -20 -75 -20 l-75 0 0 -55 0 -55 45 0 c33 0
45 -4 45 -15 0 -11 -12 -15 -45 -15 l-45 0 0 -60 0 -60 75 0 75 0 0 -30 0 -30
-105 0 -105 0 0 180 0 180 105 0 c98 0 105 -1 105 -20z m240 5 c0 -8 7 -15 15
-15 9 0 15 -9 15 -21 0 -18 -4 -20 -27 -14 -16 3 -29 11 -31 16 -5 12 -62 12
-62 -1 0 -5 -7 -10 -15 -10 -8 0 -15 -7 -15 -15 0 -8 -7 -15 -15 -15 -10 0
-15 -11 -15 -35 0 -24 -5 -35 -15 -35 -8 0 -15 -4 -15 -10 0 -5 7 -10 15 -10
11 0 15 -12 15 -45 0 -33 4 -45 15 -45 8 0 15 -7 15 -15 0 -12 13 -15 60 -15
l60 0 0 30 c0 20 5 30 15 30 8 0 15 4 15 9 0 10 -34 21 -67 21 -13 0 -23 4
-23 9 0 12 36 21 83 21 l37 0 0 -60 c0 -47 -3 -60 -15 -60 -8 0 -15 -6 -15
-14 0 -8 -13 -17 -30 -21 -16 -4 -30 -11 -30 -16 0 -5 -20 -9 -45 -9 -25 0
-45 5 -45 10 0 6 -7 10 -15 10 -8 0 -15 7 -15 15 0 8 -7 15 -15 15 -8 0 -15 9
-15 20 0 11 -7 20 -15 20 -12 0 -15 17 -15 90 0 73 3 90 15 90 10 0 15 10 15
30 0 20 5 30 15 30 8 0 15 4 15 9 0 13 25 18 93 20 44 1 57 -2 57 -14z m326 3
c15 -16 -10 -23 -92 -27 l-84 -3 0 -54 0 -54 45 0 c33 0 45 -4 45 -15 0 -11
-12 -15 -45 -15 l-45 0 0 -60 0 -60 90 0 90 0 0 -30 0 -30 -75 0 c-43 0 -75 4
-75 10 0 6 -7 10 -15 10 -8 0 -15 -4 -15 -10 0 -5 -7 -10 -15 -10 -10 0 -15
10 -15 30 0 20 -5 30 -15 30 -11 0 -15 11 -15 40 0 29 4 40 15 40 8 0 15 7 15
15 0 8 -7 15 -15 15 -8 0 -15 9 -15 20 0 11 7 20 15 20 8 0 15 7 15 15 0 8 -7
15 -15 15 -8 0 -15 7 -15 15 0 8 7 15 15 15 10 0 15 10 15 30 0 20 -5 30 -15
30 -21 0 -19 17 3 24 26 7 209 2 218 -6z m192 6 c22 -6 22 -9 22 -150 l0 -144
75 0 75 0 0 -30 0 -30 -105 0 -105 0 0 180 c0 99 3 180 8 180 4 0 17 -3 30 -6z
m412 -9 c0 -8 7 -15 15 -15 8 0 15 -7 15 -15 0 -8 7 -15 15 -15 11 0 15 -12
15 -50 0 -38 4 -50 15 -50 9 0 15 -9 15 -25 0 -16 -6 -25 -15 -25 -11 0 -15
-12 -15 -45 0 -33 -4 -45 -15 -45 -8 0 -15 -6 -15 -14 0 -8 -13 -17 -30 -21
-16 -4 -30 -11 -30 -16 0 -5 -20 -9 -45 -9 -25 0 -45 4 -45 9 0 5 -13 12 -30
16 -25 5 -30 11 -30 36 0 19 -5 29 -15 29 -12 0 -15 18 -15 100 0 82 3 100 15
100 8 0 15 9 15 20 0 11 7 20 15 20 8 0 15 7 15 15 0 12 15 15 75 15 60 0 75
-3 75 -15z m180 -5 c0 -11 7 -20 15 -20 9 0 15 -9 15 -25 0 -16 6 -25 15 -25
10 0 15 -10 15 -30 0 -20 5 -30 15 -30 8 0 15 -9 15 -20 0 -11 7 -20 15 -20 9
0 15 -9 15 -25 0 -16 6 -25 15 -25 13 0 15 20 15 120 0 66 3 120 8 120 37 -1
73 -30 37 -30 -8 0 -15 -7 -15 -15 0 -8 7 -15 15 -15 13 0 15 -21 15 -125 0
-104 -2 -125 -15 -125 -9 0 -15 -9 -15 -25 0 -16 -6 -25 -15 -25 -8 0 -15 7
-15 15 0 8 -7 15 -15 15 -10 0 -15 10 -15 30 0 20 -5 30 -15 30 -9 0 -15 9
-15 25 0 16 -6 25 -15 25 -8 0 -15 9 -15 20 0 11 -7 20 -15 20 -9 0 -15 9 -15
25 0 16 -6 25 -15 25 -12 0 -15 -18 -15 -100 0 -82 -3 -100 -15 -100 -8 0 -15
-7 -15 -15 0 -8 -7 -15 -15 -15 -13 0 -15 27 -15 180 l0 180 30 0 c23 0 30 -4
30 -20z m420 6 c0 -8 14 -17 30 -21 23 -5 30 -12 30 -31 0 -15 6 -24 15 -24
12 0 15 -17 15 -90 0 -73 -3 -90 -15 -90 -8 0 -15 -9 -15 -20 0 -11 -6 -20
-14 -20 -8 0 -16 -5 -18 -11 -2 -5 -22 -13 -46 -16 -23 -3 -42 -10 -42 -14 0
-5 -20 -9 -45 -9 l-45 0 0 180 0 180 75 0 c58 0 75 -3 75 -14z m338 8 c12 -4
22 -13 22 -20 0 -8 7 -14 15 -14 10 0 15 -10 15 -30 0 -20 5 -30 15 -30 12 0
15 -15 15 -75 0 -60 -3 -75 -15 -75 -9 0 -15 -9 -15 -25 0 -16 -6 -25 -15 -25
-8 0 -15 -6 -15 -14 0 -8 -13 -17 -30 -21 -16 -4 -30 -11 -30 -16 0 -5 -20 -9
-45 -9 -33 0 -45 4 -45 15 0 8 -7 15 -15 15 -8 0 -15 7 -15 15 0 8 -7 15 -15
15 -9 0 -15 9 -15 25 0 16 -6 25 -15 25 -12 0 -15 15 -15 75 0 60 3 75 15 75
10 0 15 10 15 30 0 20 5 30 15 30 8 0 15 6 15 14 0 8 8 17 18 19 26 7 114 7
140 1z m172 -9 c0 -8 7 -15 15 -15 10 0 15 -10 15 -30 0 -20 5 -30 15 -30 8 0
15 -7 15 -15 0 -8 7 -15 15 -15 10 0 15 -10 15 -30 0 -20 5 -30 15 -30 8 0 15
-9 15 -20 0 -11 7 -20 15 -20 12 0 15 18 15 105 0 58 3 105 8 105 4 0 17 3 30
6 l22 6 0 -171 0 -171 -30 0 c-20 0 -30 5 -30 15 0 8 -7 15 -15 15 -8 0 -15 9
-15 20 0 11 -7 20 -15 20 -10 0 -15 10 -15 30 0 20 -5 30 -15 30 -9 0 -15 9
-15 25 0 16 -6 25 -15 25 -8 0 -15 9 -15 20 0 11 -7 20 -15 20 -12 0 -15 -20
-15 -120 0 -100 -2 -120 -15 -120 -8 0 -15 5 -15 10 0 6 -7 10 -15 10 -13 0
-15 25 -15 164 0 148 2 165 18 169 33 9 42 7 42 -8z"/>
<path d="M1590 2380 c0 -5 -7 -10 -15 -10 -8 0 -15 -9 -15 -20 0 -11 -7 -20
-15 -20 -12 0 -15 -15 -15 -75 0 -60 3 -75 15 -75 9 0 15 -9 15 -25 0 -24 3
-25 60 -25 47 0 60 3 60 15 0 8 7 15 15 15 10 0 15 10 15 30 0 20 5 30 15 30
9 0 15 9 15 25 0 16 -6 25 -15 25 -11 0 -15 12 -15 44 0 41 -2 45 -30 51 -16
4 -30 11 -30 16 0 5 -13 9 -30 9 -16 0 -30 -4 -30 -10z"/>
<path d="M3630 2381 c0 -5 -13 -12 -30 -16 -25 -5 -30 -11 -30 -36 0 -19 -5
-29 -15 -29 -11 0 -15 -11 -15 -40 0 -29 4 -40 15 -40 10 0 15 -11 15 -35 0
-24 5 -35 15 -35 8 0 15 -4 15 -10 0 -6 27 -10 60 -10 l60 0 0 30 c0 20 5 30
15 30 12 0 15 14 15 70 0 56 -3 70 -15 70 -8 0 -15 9 -15 20 0 11 -7 20 -15
20 -8 0 -15 5 -15 10 0 6 -13 10 -30 10 -16 0 -30 -4 -30 -9z"/>
<path d="M4200 2260 l0 -130 60 0 c47 0 60 3 60 15 0 8 7 15 15 15 11 0 15 12
15 45 0 33 4 45 15 45 8 0 15 5 15 10 0 6 -7 10 -15 10 -10 0 -15 11 -15 35 0
24 -5 35 -15 35 -8 0 -15 7 -15 15 0 10 -10 15 -30 15 -16 0 -30 5 -30 10 0 6
-13 10 -30 10 l-30 0 0 -130z"/>
<path d="M4560 2380 c0 -5 -7 -10 -15 -10 -8 0 -15 -7 -15 -15 0 -8 -7 -15
-15 -15 -12 0 -15 -17 -15 -90 0 -73 3 -90 15 -90 8 0 15 -7 15 -15 0 -12 13
-15 60 -15 47 0 60 3 60 15 0 8 7 15 15 15 12 0 15 17 15 90 0 73 -3 90 -15
90 -8 0 -15 7 -15 15 0 8 -7 15 -15 15 -8 0 -15 5 -15 10 0 6 -13 10 -30 10
-16 0 -30 -4 -30 -10z"/>
</g>
</svg>
