<svg width="30" height="30" viewBox="0 0 30 30" fill="none" xmlns="http://www.w3.org/2000/svg">
<path d="M29.5375 5.83332C28.96 4.84082 27.8975 4.16666 26.6667 4.16666H15V5.83332H29.5375ZM0 20.8333H30V22.5H0V20.8333ZM15 14.1667H30V15.8333H15V14.1667ZM15 10.8333H30V12.5H15V10.8333ZM0 17.5H30V19.1667H0V17.5ZM3.33333 25.8333H26.6667C27.8975 25.8333 28.96 25.1592 29.5375 24.1667H0.4625C1.04 25.1592 2.1025 25.8333 3.33333 25.8333ZM15 7.49999H30V9.16666H15V7.49999Z" fill="#B22334"/>
<path d="M0.0566667 23.0658C0.0708333 23.1433 0.0866667 23.2208 0.105833 23.2967C0.1275 23.3808 0.154167 23.4617 0.1825 23.5433C0.256667 23.7592 0.346667 23.9675 0.46 24.1625L0.4625 24.1667H29.5375L29.5392 24.1633C29.6517 23.9692 29.7417 23.7608 29.8158 23.5458C29.8442 23.4633 29.8717 23.3808 29.8933 23.295C29.9125 23.22 29.9283 23.1433 29.9425 23.0658C29.9767 22.8825 30 22.6942 30 22.5H0C0 22.6942 0.0233333 22.8817 0.0566667 23.0658V23.0658ZM0 19.1667H30V20.8333H0V19.1667ZM0 15.8333V17.5H30V15.8333H15H0ZM15 12.5H30V14.1667H15V12.5ZM15 9.16668H30V10.8333H15V9.16668ZM0 7.50001C0 7.30584 0.025 7.11918 0.0566667 6.93418C0.0233333 7.11834 0 7.30584 0 7.50001ZM0.4625 5.83334L0.46 5.83751L0.4625 5.83334ZM0.106667 6.70334C0.1275 6.61834 0.156667 6.53751 0.183333 6.45584C0.155 6.53751 0.128333 6.61918 0.106667 6.70334ZM15 7.50001H30C30 7.30584 29.9767 7.11751 29.9425 6.93334C29.9283 6.85668 29.9133 6.78001 29.8933 6.70501C29.8708 6.61918 29.8442 6.53584 29.815 6.45334C29.7408 6.23834 29.6508 6.03084 29.5383 5.83668C29.5392 5.83584 29.5383 5.83418 29.5375 5.83334H15V7.50001Z" fill="#EEEEEE"/>
<path d="M15 4.16666H3.33333C1.4925 4.16666 0 5.65916 0 7.49999V15.8333H15V4.16666Z" fill="#3C3B6E"/>
<path d="M1.66748 6.43834L2.18248 6.81251L1.98581 7.41668L2.49998 7.04334L3.01498 7.41668L2.81831 6.81251L3.33331 6.43834H2.69665L2.49998 5.83334L2.30415 6.43834H1.66748ZM3.33415 8.10501L3.84915 8.47918L3.65248 9.08334L4.16665 8.71001L4.68165 9.08334L4.48498 8.47918L4.99998 8.10501H4.36331L4.16665 7.50001L3.97081 8.10501H3.33415ZM6.66748 8.10501L7.18248 8.47918L6.98581 9.08334L7.49998 8.71001L8.01498 9.08334L7.81831 8.47918L8.33331 8.10501H7.69665L7.49998 7.50001L7.30415 8.10501H6.66748ZM10.0008 8.10501L10.5158 8.47918L10.3191 9.08334L10.8333 8.71001L11.3483 9.08334L11.1516 8.47918L11.6666 8.10501H11.03L10.8333 7.50001L10.6375 8.10501H10.0008ZM3.33415 11.4383L3.84915 11.8125L3.65248 12.4167L4.16665 12.0433L4.68165 12.4167L4.48498 11.8125L4.99998 11.4383H4.36331L4.16665 10.8333L3.97081 11.4383H3.33415ZM6.66748 11.4383L7.18248 11.8125L6.98581 12.4167L7.49998 12.0433L8.01498 12.4167L7.81831 11.8125L8.33331 11.4383H7.69665L7.49998 10.8333L7.30415 11.4383H6.66748ZM10.0008 11.4383L10.5158 11.8125L10.3191 12.4167L10.8333 12.0433L11.3483 12.4167L11.1516 11.8125L11.6666 11.4383H11.03L10.8333 10.8333L10.6375 11.4383H10.0008ZM5.00081 6.43834L5.51581 6.81251L5.31915 7.41668L5.83331 7.04334L6.34831 7.41668L6.15165 6.81251L6.66665 6.43834H6.02998L5.83331 5.83334L5.63748 6.43834H5.00081ZM8.33415 6.43834L8.84915 6.81251L8.65248 7.41668L9.16665 7.04334L9.68165 7.41668L9.48498 6.81251L9.99998 6.43834H9.36331L9.16665 5.83334L8.97081 6.43834H8.33415ZM11.6675 6.43834L12.1825 6.81251L11.9858 7.41668L12.5 7.04334L13.015 7.41668L12.8183 6.81251L13.3333 6.43834H12.6966L12.5 5.83334L12.3041 6.43834H11.6675ZM1.66748 9.77168L2.18248 10.1458L1.98581 10.75L2.49998 10.3767L3.01498 10.75L2.81831 10.1458L3.33331 9.77168H2.69665L2.49998 9.16668L2.30415 9.77168H1.66748ZM5.31915 10.75L5.83331 10.3767L6.34831 10.75L6.15165 10.1458L6.66665 9.77168H6.02998L5.83331 9.16668L5.63748 9.77168H5.00081L5.51581 10.1458L5.31915 10.75ZM8.33415 9.77168L8.84915 10.1458L8.65248 10.75L9.16665 10.3767L9.68165 10.75L9.48498 10.1458L9.99998 9.77168H9.36331L9.16665 9.16668L8.97081 9.77168H8.33415ZM11.6675 9.77168L12.1825 10.1458L11.9858 10.75L12.5 10.3767L13.015 10.75L12.8183 10.1458L13.3333 9.77168H12.6966L12.5 9.16668L12.3041 9.77168H11.6675ZM1.66748 13.105L2.18248 13.4792L1.98581 14.0833L2.49998 13.71L3.01498 14.0833L2.81831 13.4792L3.33331 13.105H2.69665L2.49998 12.5L2.30415 13.105H1.66748ZM5.31915 14.0833L5.83331 13.71L6.34831 14.0833L6.15165 13.4792L6.66665 13.105H6.02998L5.83331 12.5L5.63748 13.105H5.00081L5.51581 13.4792L5.31915 14.0833ZM8.33415 13.105L8.84915 13.4792L8.65248 14.0833L9.16665 13.71L9.68165 14.0833L9.48498 13.4792L9.99998 13.105H9.36331L9.16665 12.5L8.97081 13.105H8.33415ZM11.6675 13.105L12.1825 13.4792L11.9858 14.0833L12.5 13.71L13.015 14.0833L12.8183 13.4792L13.3333 13.105H12.6966L12.5 12.5L12.3041 13.105H11.6675Z" fill="white"/>
</svg>
